<?xml version="1.0" encoding="utf-8"?>
<!-- Generator: Adobe Illustrator 20.0.0, SVG Export Plug-In . SVG Version: 6.00 Build 0)  -->
<svg version="1.1" id="Layer_1" xmlns:v="https://vecta.io/nano"
	 xmlns="http://www.w3.org/2000/svg" xmlns:xlink="http://www.w3.org/1999/xlink" x="0px" y="0px" viewBox="0 0 102 79"
	 style="enable-background:new 0 0 102 79;" xml:space="preserve">
<style type="text/css">
	.st0{fill:#F74F78;fill-opacity:0.1;}
	.st1{fill:#F74F78;}
</style>
<path class="st0" d="M37.9,74.8c17.9,8.7,53.2,3.1,61.9-14.8S82.7,22,64.8,13.3s-42-21.7-50.7-3.9S20,66.1,37.9,74.8z"/>
<path class="st1" d="M60,44.7c3.5,0,6.4-2.9,6.4-6.4c0-3.5-2.9-6.4-6.4-6.4c-3,0-5.5,2-6.2,4.8H42.4v-3.2c0-1.8-1.4-3.2-3.2-3.2
	h-9.6c-1.8,0-3.2,1.4-3.2,3.2v3.2H15c-0.7-2.8-3.2-4.8-6.2-4.8c-3.5,0-6.4,2.9-6.4,6.4s2.9,6.4,6.4,6.4c3,0,5.5-2,6.2-4.8h11.3
	c-8.1,3.2-13.5,10.6-14.1,19.2H8.8c-1.8,0-3.2,1.4-3.2,3.2v9.6c0,1.8,1.4,3.2,3.2,3.2h9.6c1.8,0,3.2-1.4,3.2-3.2v-9.6
	c0-1.8-1.4-3.2-3.2-3.2h-3.1c0.6-6.9,4.8-13,11.1-15.8c0.1,1.7,1.5,3,3.2,3h9.6c1.7,0,3.1-1.3,3.2-3c6.3,2.9,10.5,8.9,11.1,15.8
	h-3.1c-1.8,0-3.2,1.4-3.2,3.2v9.6c0,1.8,1.4,3.2,3.2,3.2H60c1.8,0,3.2-1.4,3.2-3.2v-9.6c0-1.8-1.4-3.2-3.2-3.2h-3.3
	c-0.6-8.6-6.1-16-14.1-19.2h11.3C54.6,42.7,57,44.7,60,44.7L60,44.7z M18.4,71.9H8.8v-9.6h9.6V71.9z M8.8,41.5
	c-1.8,0-3.2-1.4-3.2-3.2s1.4-3.2,3.2-3.2s3.2,1.4,3.2,3.2S10.6,41.5,8.8,41.5z M39.2,43.1h-9.6v-9.6h9.6V43.1z M60,71.9h-9.6v-9.6
	H60V71.9z M60,35.1c1.8,0,3.2,1.4,3.2,3.2s-1.4,3.2-3.2,3.2s-3.2-1.4-3.2-3.2S58.3,35.1,60,35.1z"/>
</svg>
