<?xml version="1.0" encoding="utf-8"?>
<!-- Generator: Adobe Illustrator 20.0.0, SVG Export Plug-In . SVG Version: 6.00 Build 0)  -->
<svg version="1.1" id="Layer_1" xmlns:v="https://vecta.io/nano"
	 xmlns="http://www.w3.org/2000/svg" xmlns:xlink="http://www.w3.org/1999/xlink" x="0px" y="0px" viewBox="0 0 102 79"
	 style="enable-background:new 0 0 102 79;" xml:space="preserve">
<style type="text/css">
	.st0{opacity:0.1;fill:#6A9BF4;enable-background:new    ;}
	.st1{fill:#6A9BF4;}
</style>
<path class="st0" d="M37.9,74.8c17.9,8.7,53.2,3.1,61.9-14.8S82.7,22,64.8,13.3s-42-21.7-50.7-3.9S20,66.1,37.9,74.8z"/>
<g>
	<path class="st0" d="M-48,72.5h2v58h-2c-0.6,0-1-0.6-1-1.2V73.7C-49,73-48.5,72.5-48,72.5z"/>
	<path class="st1" d="M-47.7,131.5l34.3-0.2l0-1.5l-34.3,0.2c-1,0-1.8-0.8-1.8-1.8V74.7c0-1,0.8-1.8,1.8-1.8h37.4
		c1,0,1.8,0.8,1.8,1.8v19.5H-7V74.7c0-1.8-1.5-3.3-3.3-3.2h-37.4c-1.8,0-3.3,1.4-3.3,3.2c0,0,0,0,0,0v53.5
		C-51,130-49.5,131.5-47.7,131.5L-47.7,131.5z M-46.1,78.5h15.3c0.4,0,0.7-0.3,0.7-0.7s-0.3-0.7-0.7-0.7h-15.3
		c-0.4,0-0.7,0.3-0.7,0.7S-46.5,78.5-46.1,78.5z M-47.9,122.9c0,0.4,0.3,0.7,0.7,0.7h15.3c0.4,0,0.7-0.3,0.7-0.7s-0.3-0.7-0.7-0.7
		h-15.3C-47.6,122.2-47.9,122.5-47.9,122.9z"/>
	<g>
		<path id="B" class="st1" d="M-14.9,82.7h-31.8c-0.4,0-0.7,0.3-0.7,0.7c0,0.4,0.3,0.7,0.7,0.7h31.8c0.4,0,0.7-0.3,0.7-0.7
			C-14.2,83-14.5,82.7-14.9,82.7L-14.9,82.7z"/>
	</g>
	<g>
		<path id="B_1_" class="st1" d="M-14.9,88.3h-31.8c-0.4,0-0.7,0.3-0.7,0.7s0.3,0.7,0.7,0.7h31.8c0.4,0,0.7-0.3,0.7-0.7
			S-14.5,88.3-14.9,88.3L-14.9,88.3z"/>
	</g>
	<g>
		<path id="B_2_" class="st1" d="M-14.9,94h-31.8c-0.4,0-0.7,0.3-0.7,0.7c0,0.4,0.3,0.7,0.7,0.7h31.8c0.4,0,0.7-0.3,0.7-0.7
			C-14.2,94.3-14.5,94-14.9,94L-14.9,94z"/>
	</g>
	<path class="st1" d="M-14.9,99.6h-31.8c-0.4,0-0.7,0.3-0.7,0.7s0.3,0.7,0.7,0.7h31.8c0.4,0,0.7-0.3,0.7-0.7S-14.5,99.6-14.9,99.6
		L-14.9,99.6L-14.9,99.6z M-14.2,106c0-0.4-0.3-0.7-0.7-0.7h-31.8c-0.4,0-0.7,0.3-0.7,0.7s0.3,0.7,0.7,0.7h31.8
		C-14.5,106.7-14.2,106.4-14.2,106z M-17.6,111.6c0-0.4-0.3-0.7-0.7-0.7h-28.4c-0.4,0-0.7,0.3-0.7,0.7s0.3,0.7,0.7,0.7h28.4
		C-17.9,112.4-17.6,112-17.6,111.6L-17.6,111.6L-17.6,111.6z M-41.8,116.8c0.3-0.7,0.3-1.3,0-1.8c-0.3-0.4-0.8-0.7-1.4-0.8
		c-0.8-0.1-1.7,0.1-2.3,0.5c-0.6,0.5-1,1.4-1,2.4l0,0c-0.4-0.1-0.8,0-0.9,0.4c-0.2,0.4,0,0.8,0.4,1c0.3,0.1,0.6,0.2,0.9,0.3
		c0.3,0.8,0.9,1.4,1.6,1.8c0.4,0.2,0.9,0.3,1.4,0.3c0.7,0,1.4-0.2,1.9-0.5c0.4-0.3,0.8-0.6,1.1-1l0.2-0.2c0.2,0.2,0.4,0.3,0.7,0.5
		c0.6,0.3,1.3,0.5,2,0.5c0.8,0,1.6-0.2,2.3-0.6c0.3-0.2,0.5-0.7,0.3-1c-0.2-0.3-0.6-0.5-1-0.3c-0.5,0.3-1,0.4-1.6,0.4
		c-0.5,0-0.9-0.1-1.3-0.3c-0.2-0.1-0.3-0.2-0.4-0.3c-0.2-0.2-0.5-0.4-0.9-0.4c-0.7,0-1.1,0.5-1.4,0.9c-0.2,0.3-0.4,0.5-0.7,0.7
		c-0.5,0.3-1.4,0.4-1.9,0.2c-0.2-0.1-0.3-0.2-0.5-0.4c0.6-0.1,1.1-0.3,1.6-0.7C-42.4,117.8-42,117.4-41.8,116.8L-41.8,116.8
		L-41.8,116.8z M-43.7,117c-0.4,0.3-0.8,0.4-1.2,0.4c-0.1-0.7,0.1-1.3,0.4-1.5c0.3-0.2,0.6-0.3,0.9-0.3c0.1,0,0.2,0,0.3,0
		c0.3,0,0.4,0.1,0.4,0.2C-42.9,115.9-43.2,116.6-43.7,117C-43.7,117-43.7,117-43.7,117z M6.7,118.1c-0.2-0.1-0.4-0.2-0.6-0.1
		l-4.6,1.2l-2.5-4.5c-0.3-0.6-0.3-1.3-0.2-1.9l0,0l2.1-8.8c0.6-2.4,0.3-5-0.7-7.2c0,0,0-0.1,0-0.1l-7.9-12.7c-0.2-0.3-0.6-0.4-1-0.2
		c0,0,0,0,0,0c-0.3,0.2-0.4,0.7-0.2,1l7.8,12.6c0.8,2,1,4.2,0.6,6.3l-2.1,8.8c-0.3,1-0.2,2,0.3,3l0,0l2.3,4.1l-9.5,2.4
		c-0.2-0.9-0.7-1.7-1.2-2.5l-1.2-1.5c-1.9-2.8-2.1-6.5-0.5-9.5l0.3-0.6c0.6-1,0.9-2.2,0.9-3.4l0.3-5.9c0.1-1.8,1.4-3.2,3.1-3.5
		l-0.4,4.2c-0.1,1.6-0.1,3.1,0,4.7c0,0.3,0.2,0.5,0.4,0.6c0.2,0.1,0.5,0.1,0.7-0.1c0.2-0.2,0.3-0.4,0.3-0.7c-0.1-1.5-0.1-3,0-4.4
		l0.5-5.1c0-0.2,0-0.4-0.2-0.5c-0.1-0.2-0.3-0.2-0.5-0.3c-2.8-0.1-5.2,2.1-5.4,4.9l-0.3,5.9c0,1-0.3,1.9-0.8,2.7l-0.3,0.6
		c-1.9,3.5-1.7,7.8,0.5,11.1l0,0l1.2,1.5c0.4,0.6,0.8,1.2,1,1.9l-2.7,0.7c-0.3,0.1-0.5,0.4-0.5,0.7l-0.3,7.1c0,0.2,0.1,0.4,0.2,0.5
		c0.1,0.1,0.3,0.2,0.5,0.2l0,0l19.6-1.4c0.4,0,0.6-0.3,0.7-0.7L7,118.7C7,118.4,6.9,118.2,6.7,118.1L6.7,118.1L6.7,118.1z
		 M5.1,128.6l-18.2,1.3l0.3-5.8l18.3-4.6L5.1,128.6L5.1,128.6z M0,123.8c0,0.7,0.2,1.3,0.7,1.8c0.4,0.5,1.1,0.8,1.7,0.8l0.1,0
		c1.3,0,2.4-1,2.5-2.4c0-0.7-0.2-1.3-0.7-1.8c-0.7-0.7-1.7-1-2.7-0.7S0.1,122.8,0,123.8L0,123.8L0,123.8z M3.3,124
		c0,0.5-0.4,0.8-0.9,0.8c-0.2,0-0.4-0.1-0.6-0.3c-0.1-0.2-0.2-0.4-0.2-0.6c0-0.4,0.4-0.8,0.8-0.8l0,0c0.2,0,0.4,0.1,0.6,0.3
		C3.3,123.6,3.3,123.8,3.3,124L3.3,124L3.3,124z"/>
</g>
<path class="st1" d="M55.6,72.5L41.9,58.8c-0.2-0.2-0.6-0.4-0.9-0.4h-1.1c3.6-3.9,5.9-9.2,5.9-15c0-12.2-9.9-22-22-22s-22,9.9-22,22
	s9.9,22,22,22c5.8,0,11-2.2,15-5.9v1.1c0,0.3,0.1,0.7,0.4,0.9l13.7,13.7c0.5,0.5,1.3,0.5,1.8,0l1-1C56.1,73.8,56.1,73,55.6,72.5z
	 M23.7,62.2c-10.3,0-18.7-8.3-18.7-18.7s8.3-18.7,18.7-18.7s18.7,8.3,18.7,18.7S34,62.2,23.7,62.2z"/>
</svg>
