<?xml version="1.0" encoding="utf-8"?>
<!-- Generator: Adobe Illustrator 20.0.0, SVG Export Plug-In . SVG Version: 6.00 Build 0)  -->
<svg version="1.0" id="Layer_1" xmlns:v="https://vecta.io/nano"
	 xmlns="http://www.w3.org/2000/svg" xmlns:xlink="http://www.w3.org/1999/xlink" x="0px" y="0px" viewBox="0 0 98 79"
	 enable-background="new 0 0 98 79" xml:space="preserve">
<path opacity="0.1" fill="#16C995" enable-background="new    " d="M34.3,74.9c17.9,8.7,53.2,3.1,61.9-14.8s-17.1-38.1-35-46.8
	s-42-21.7-50.7-3.9S16.4,66.2,34.3,74.9L34.3,74.9z"/>
<path fill="#16C995" d="M22.4,78.3l-2.4-0.7c-0.3-0.1-0.5-0.4-0.4-0.7l13.8-47.3c0.1-0.3,0.4-0.5,0.7-0.4l2.4,0.7
	c0.3,0.1,0.5,0.4,0.4,0.7L23.1,77.9C23,78.2,22.7,78.4,22.4,78.3L22.4,78.3z M15,66.3l1.8-2c0.2-0.2,0.2-0.5,0-0.7L4.9,53.7
	l11.9-9.8c0.2-0.2,0.2-0.5,0-0.7l-1.8-2c-0.2-0.2-0.5-0.2-0.7,0L0.2,53.4c-0.2,0.2-0.2,0.5,0,0.7l14.1,12.2
	C14.5,66.5,14.8,66.5,15,66.3L15,66.3z M42.1,66.3l14.1-12.2c0.2-0.2,0.2-0.5,0-0.7L42.1,41.2c-0.2-0.2-0.5-0.2-0.7,0l-1.8,2
	c-0.2,0.2-0.2,0.5,0,0.7l11.9,9.8l-11.9,9.8c-0.2,0.2-0.2,0.5,0,0.7l1.8,2C41.6,66.5,41.9,66.5,42.1,66.3z"/>
<path opacity="0.2" fill="#16C995" enable-background="new    " d="M21.6,78l-2.4-0.7c-0.3-0.1-0.5-0.4-0.4-0.7l13.8-47.3
	c0.1-0.3,0.4-0.5,0.7-0.4l2.4,0.7c0.3,0.1,0.5,0.4,0.4,0.7L22.4,77.6C22.3,77.9,21.9,78.1,21.6,78L21.6,78z"/>
<path opacity="0.2" fill="#16C995" enable-background="new    " d="M16.4,66.3l1.8-2c0.2-0.2,0.2-0.5,0-0.7L6.3,53.7l11.9-9.8
	c0.2-0.2,0.2-0.5,0-0.7l-1.8-2c-0.2-0.2-0.5-0.2-0.7,0L1.5,53.4c-0.2,0.2-0.2,0.5,0,0.7l14.1,12.2C15.9,66.5,16.2,66.5,16.4,66.3
	L16.4,66.3z"/>
<path opacity="0.2" fill="#16C995" enable-background="new    " d="M40,66.3c0.2,0.2,0.5,0.2,0.7,0l14.1-12.2c0.2-0.2,0.2-0.5,0-0.7
	L40.7,41.2c-0.2-0.2-0.5-0.2-0.7,0l-1.8,2c-0.2,0.2-0.2,0.5,0,0.7l11.9,9.8l-11.9,9.8c-0.2,0.2-0.2,0.5,0,0.7L40,66.3L40,66.3z"/>
</svg>
