<?xml version="1.0" encoding="utf-8"?>
<!-- Generator: Adobe Illustrator 20.0.0, SVG Export Plug-In . SVG Version: 6.00 Build 0)  -->
<svg version="1.1" id="Layer_1" xmlns:v="https://vecta.io/nano"
	 xmlns="http://www.w3.org/2000/svg" xmlns:xlink="http://www.w3.org/1999/xlink" x="0px" y="0px" viewBox="0 0 98 79"
	 style="enable-background:new 0 0 98 79;" xml:space="preserve">
<style type="text/css">
	.st0{opacity:0.1;fill:#16C995;enable-background:new    ;}
	.st1{fill:#16C995;}
</style>
<path class="st0" d="M34.3,74.9c17.9,8.7,53.2,3.1,61.9-14.8s-17.1-38.1-35-46.8s-42-21.7-50.7-3.9S16.4,66.2,34.3,74.9L34.3,74.9z"
	/>
<g>
	<path class="st1" d="M24.1,56l0.9-1c0.3-0.3,0.3-0.7,0-1l-3.8-4.1l3.8-4.1c0.3-0.3,0.3-0.7,0-1l-0.9-1c-0.3-0.3-0.7-0.3-0.9,0
		L18,49.4c-0.3,0.3-0.3,0.7,0,1l5.2,5.6C23.4,56.3,23.8,56.3,24.1,56z M31.9,55l0.9,1c0.3,0.3,0.7,0.3,0.9,0l5.2-5.6
		c0.3-0.3,0.3-0.7,0-1l-5.2-5.6c-0.3-0.3-0.7-0.3-0.9,0l-0.9,1c-0.3,0.3-0.3,0.7,0,1l3.8,4.1L31.9,54C31.6,54.3,31.6,54.7,31.9,55
		C31.9,55,31.9,55,31.9,55z M53.1,63.9h-3.9V40.1c0-3.1-2.3-5.6-5.2-5.6H12.8c-2.9,0-5.2,2.5-5.2,5.6v23.8H3.7
		c-0.7,0-1.3,0.6-1.3,1.4v4.2c0,3.9,2.9,7,6.5,7h39c3.6,0,6.5-3.1,6.5-7v-4.2C54.4,64.5,53.8,63.9,53.1,63.9z M10.2,40.1
		c0-1.5,1.2-2.8,2.6-2.8H44c1.4,0,2.6,1.3,2.6,2.8v23.8H34.2c-0.3,0-0.6,0.3-0.6,0.6c-0.3,1.2-1.3,2.2-2.5,2.2h-5.2
		c-1.2,0-2.3-0.9-2.5-2.2c-0.1-0.3-0.3-0.6-0.6-0.6H10.2V40.1z M51.8,69.5c0,2.3-1.7,4.2-3.9,4.2h-39c-2.1,0-3.9-1.9-3.9-4.2v-2.8
		h15.8c0.5,1.6,2,2.8,3.7,2.8h7.8c1.7,0,3.1-1.2,3.7-2.8h15.8V69.5z"/>
</g>
</svg>
