<?xml version="1.0" encoding="utf-8"?>
<!-- Generator: Adobe Illustrator 20.0.0, SVG Export Plug-In . SVG Version: 6.00 Build 0)  -->
<svg version="1.1" id="Layer_1" xmlns:v="https://vecta.io/nano"
	 xmlns="http://www.w3.org/2000/svg" xmlns:xlink="http://www.w3.org/1999/xlink" x="0px" y="0px" viewBox="0 0 100 80"
	 style="enable-background:new 0 0 100 80;" xml:space="preserve">
<style type="text/css">
	.st0{opacity:0.1;fill:#F57C00;enable-background:new    ;}
	.st1{fill:#FFBD5C;}
	.st2{opacity:0.2;fill:#FFBD5C;enable-background:new    ;}
	.st3{fill:#F57C00;}
</style>
<path class="st0" d="M36.3,74.9c17.9,8.7,53.2,3.1,61.9-14.8s-17.1-38.1-35-46.8s-42-21.7-50.7-3.9S18.4,66.2,36.3,74.9L36.3,74.9z"
	/>
<g>
	<path class="st1" d="M65.5,80.6c-6.6,0-12,5.4-12,12s5.4,12,12,12s12-5.4,12-12C77.5,86,72.1,80.6,65.5,80.6z M65.5,103.3
		c-5.9,0-10.6-4.8-10.6-10.6S59.6,82,65.5,82s10.6,4.8,10.6,10.6C76.1,98.5,71.4,103.3,65.5,103.3z M65.5,86.8
		c1.4,0,2.6,1.1,2.6,2.6c0,0.4,0.3,0.7,0.7,0.7s0.7-0.3,0.7-0.7c0-1.9-1.4-3.5-3.3-3.9v-1.2c0-0.4-0.3-0.7-0.7-0.7s-0.7,0.3-0.7,0.7
		v1.2c-2,0.4-3.5,2.2-3.3,4.2c0.2,2,1.9,3.6,4,3.6c1.4,0,2.6,1.1,2.6,2.5c0,1.4-1.1,2.6-2.6,2.6c0,0,0,0,0,0l0,0
		c-1.4,0-2.6-1.2-2.6-2.6c0-0.4-0.3-0.7-0.7-0.7s-0.7,0.3-0.7,0.7c0,1.9,1.4,3.5,3.3,3.9v1.3c0,0.4,0.3,0.7,0.7,0.7s0.7-0.3,0.7-0.7
		v-1.3c2-0.4,3.5-2.2,3.3-4.2c-0.2-2-1.9-3.6-4-3.6c-1.4,0-2.6-1.2-2.6-2.6S64.1,86.8,65.5,86.8L65.5,86.8z M62.4,111
		c-2.4-1-5.6-1.5-9-1.5c-1.6,0-3.2,0.1-4.8,0.4V91.3c0-1.6-1.4-3.1-4.1-4.1c-2.4-1-5.6-1.5-9-1.5c-3.4,0-6.6,0.5-9,1.5
		c-2.6,1-4.1,2.5-4.1,4.1v29.8c0,1.6,1.4,3.1,4.1,4.1c2.4,1,5.6,1.5,9,1.5c1.6,0,3.2-0.1,4.8-0.4v3.6c0,1.6,1.4,3.1,4,4.1
		c2.4,1,5.6,1.5,9,1.5s6.6-0.5,9-1.5c2.6-1,4.1-2.5,4.1-4.1v-14.9C66.5,113.5,65,112,62.4,111L62.4,111z M35.6,87
		c6.9,0,11.7,2.3,11.7,4.3s-4.8,4.3-11.7,4.3s-11.7-2.3-11.7-4.3C23.9,89.3,28.7,87,35.6,87z M23.9,93.9c0.7,0.6,1.6,1.1,2.7,1.6
		c2.4,1,5.6,1.5,9,1.5s6.6-0.5,9-1.5c1.1-0.5,2-1,2.7-1.6v2.4c0,2-4.8,4.3-11.7,4.3s-11.7-2.3-11.7-4.3L23.9,93.9L23.9,93.9z
		 M23.9,98.8c0.7,0.6,1.6,1.1,2.7,1.6c2.4,1,5.6,1.5,9,1.5s6.6-0.5,9-1.5c1.1-0.4,2-1,2.7-1.6v2.4c0,2-4.8,4.3-11.7,4.3
		s-11.7-2.3-11.7-4.3L23.9,98.8L23.9,98.8z M23.9,103.8c0.7,0.6,1.6,1.1,2.7,1.6c2.4,1,5.6,1.5,9,1.5s6.6-0.5,9-1.5
		c1.1-0.5,2-1,2.7-1.6v2.4c0,2-4.8,4.3-11.7,4.3s-11.7-2.3-11.7-4.3L23.9,103.8L23.9,103.8z M23.9,108.8c0.7,0.6,1.6,1.1,2.7,1.6
		c2.4,1,5.6,1.5,9,1.5s6.6-0.5,9-1.5c1.1-0.4,2-1,2.7-1.6v1.3c-1,0.2-2,0.5-2.9,0.9c-2.6,1-4,2.5-4.1,4.1c-1.6,0.3-3.2,0.4-4.7,0.4
		c-6.9,0-11.7-2.3-11.7-4.3L23.9,108.8L23.9,108.8z M23.9,113.7c0.7,0.6,1.6,1.1,2.7,1.6c2.4,1,5.6,1.5,9,1.5c1.6,0,3.2-0.1,4.8-0.4
		v3.6c-1.6,0.3-3.2,0.4-4.8,0.4c-6.9,0-11.7-2.3-11.7-4.3L23.9,113.7L23.9,113.7z M23.9,121.1v-2.4c0.7,0.6,1.6,1.1,2.7,1.6
		c2.4,1,5.6,1.5,9,1.5c1.6,0,3.2-0.1,4.8-0.4v3.6c-1.6,0.3-3.2,0.4-4.8,0.4C28.7,125.3,23.9,123.1,23.9,121.1L23.9,121.1z
		 M53.4,134.3c-6.9,0-11.7-2.3-11.7-4.3v-2.4c0.7,0.6,1.6,1.1,2.7,1.6c2.4,1,5.6,1.5,9,1.5s6.6-0.5,9-1.5c1.1-0.4,2-1,2.7-1.6v2.4
		C65.1,132,60.3,134.3,53.4,134.3L53.4,134.3z M53.4,129.3c-6.9,0-11.7-2.3-11.7-4.3v-2.4c0.7,0.6,1.6,1.1,2.7,1.6
		c2.4,1,5.6,1.5,9,1.5s6.6-0.5,9-1.5c1.1-0.4,2-1,2.7-1.6v2.4C65.1,127,60.3,129.3,53.4,129.3L53.4,129.3z M53.4,124.3
		c-6.9,0-11.7-2.3-11.7-4.3v-2.4c0.7,0.6,1.6,1.1,2.7,1.6c2.4,1,5.6,1.5,9,1.5s6.6-0.5,9-1.5c1.1-0.5,2-1,2.7-1.6v2.4
		C65.1,122.1,60.3,124.3,53.4,124.3L53.4,124.3z M53.4,119.4c-6.9,0-11.7-2.3-11.7-4.3c0-2,4.8-4.3,11.7-4.3s11.7,2.3,11.7,4.3
		C65.1,117.1,60.3,119.4,53.4,119.4z"/>
	<path class="st2" d="M26.8,91.6c0-1.8,4.3-3.8,10.7-4c-0.4,0-0.8,0-1.2,0c-7,0-11.8,2.1-11.8,4s4.9,4,11.8,4c0.4,0,0.8,0,1.2,0
		C31.1,95.4,26.8,93.4,26.8,91.6z M26.8,96.1v-1c-0.8-0.4-1.6-0.9-2.3-1.5v2.5c0,2.1,4.9,4.5,11.8,4.5c0.4,0,0.8,0,1.2,0
		C31.1,100.4,26.8,98.1,26.8,96.1z M26.8,101.1v-1c-0.8-0.4-1.6-0.9-2.3-1.5v2.5c0,2.1,4.9,4.5,11.8,4.5c0.4,0,0.8,0,1.2,0
		C31.1,105.4,26.8,103.1,26.8,101.1z M26.8,106.1v-1c-0.8-0.4-1.6-0.9-2.3-1.5v2.5c0,2.1,4.9,4.5,11.8,4.5c0.4,0,0.8,0,1.2,0
		C31.1,110.4,26.8,108.1,26.8,106.1z M26.8,111.1v-1c-0.8-0.4-1.6-0.9-2.3-1.5v2.5c0,2.1,4.9,4.5,11.9,4.5c0.4,0,0.8,0,1.1,0
		C31.1,115.4,26.8,113.1,26.8,111.1z M26.8,116.1v-1c-0.8-0.4-1.6-0.9-2.3-1.5v2.5c0,2.1,4.9,4.5,11.9,4.5c0.4,0,0.8,0,1.1,0
		C31.1,120.4,26.8,118.1,26.8,116.1L26.8,116.1z M26.8,121.1v-1c-0.8-0.4-1.6-0.9-2.3-1.5v2.5c0,2.1,4.9,4.5,11.9,4.5
		c0.4,0,0.8,0,1.1,0C31.1,125.4,26.8,123.1,26.8,121.1L26.8,121.1z"/>
	<g>
		<path id="B" class="st1" d="M43.8,130.1v-1c-0.8-0.4-1.6-0.9-2.3-1.5v2.5c0,2.1,4.9,4.5,11.8,4.5c0.4,0,0.8,0,1.2,0
			C48.1,134.4,43.8,132.1,43.8,130.1L43.8,130.1z"/>
	</g>
	<g>
		<path id="B_1_" class="st1" d="M43.8,125.1v-1c-0.8-0.4-1.6-0.9-2.3-1.5v2.5c0,2.1,4.9,4.5,11.8,4.5c0.4,0,0.8,0,1.2,0
			C48.1,129.4,43.8,127.1,43.8,125.1L43.8,125.1z"/>
	</g>
	<g>
		<path id="B_2_" class="st1" d="M43.8,120.1v-1c-0.8-0.4-1.6-0.9-2.3-1.5v2.5c0,2.1,4.9,4.5,11.8,4.5c0.4,0,0.8,0,1.2,0
			C48.1,124.4,43.8,122.1,43.8,120.1L43.8,120.1z"/>
	</g>
	<path class="st2" d="M43.8,115.6c0-1.8,4.3-3.8,10.7-4c-0.4,0-0.8,0-1.2,0c-7,0-11.8,2.1-11.8,4s4.9,4,11.8,4c0.4,0,0.8,0,1.2,0
		C48.1,119.4,43.8,117.4,43.8,115.6z M67.8,101.5c-4.8,0-9.1-3-10.5-7.3s0.4-9.1,4.5-11.6c-4,1.3-6.8,4.7-7.2,8.7s1.6,7.8,5.2,9.9
		c3.7,2.1,8.1,2,11.7-0.2C70.3,101.3,69.1,101.5,67.8,101.5C67.8,101.5,67.8,101.5,67.8,101.5z"/>
</g>
<path class="st3" d="M54.3,47.4c-0.2-0.9-0.8-1.8-1.5-2.2c-0.2-0.1-1.5-0.3-2.9-0.3c-2.4-0.1-2.6-0.2-3.4-0.6
	c-1.2-0.7-1.5-1.4-1.5-3.5c0-3.9-1.6-7.5-4.8-10.7c-2.3-2.3-4.8-3.9-7.7-4.8c-0.7-0.2-2.2-0.3-7.4-0.3c-8.2-0.1-10,0.1-12.7,1.2
	c-5.1,2-8.8,6.3-10.1,11.8c-0.2,1-0.3,2.7-0.4,12.2c-0.1,11.9,0,13.7,0.8,16c1.8,5.8,7,10.1,12.3,11.1c1.7,0.3,23.2,0.4,25.4,0.1
	c3.8-0.5,6.8-2.1,9.6-4.9c2-2.1,3.3-4.3,4.1-7.3C54.6,63.2,54.6,48.4,54.3,47.4L54.3,47.4z M16.5,39.9c0.9-0.9,1.2-1,6.9-1
	c5.2,0,5.3,0,6.1,0.4c1.1,0.6,1.6,1.3,1.6,2.6c0,1.1-0.4,1.9-1.4,2.5c-0.5,0.3-0.9,0.4-5.9,0.4c-3.1,0-5.6,0-6-0.1
	C15.8,44.2,15,41.4,16.5,39.9z M39,63.4l-1.8,0.3l-9.1,0.1c-8,0.1-10.3,0-10.7-0.2c-0.8-0.4-1.6-1.4-1.8-2.3c-0.1-0.9,0.3-2,1-2.6
	c0.8-0.8,1.2-0.8,11.4-0.8c10.5,0,10.5,0,11.5,0.9C41,60.1,40.7,62.4,39,63.4L39,63.4z"/>
</svg>
