<?xml version="1.0" encoding="utf-8"?>
<!-- Generator: Adobe Illustrator 20.0.0, SVG Export Plug-In . SVG Version: 6.00 Build 0)  -->
<svg version="1.1" id="Layer_1" xmlns="http://www.w3.org/2000/svg" xmlns:xlink="http://www.w3.org/1999/xlink" x="0px" y="0px"
	 viewBox="0 0 105 105" style="enable-background:new 0 0 105 105;" xml:space="preserve">
<style type="text/css">
	.st0{fill:url(#SVGID_1_);}
	.st1{fill:url(#SVGID_2_);}
	.st2{fill:url(#SVGID_3_);}
	.st3{fill:url(#SVGID_4_);}
	.st4{fill:url(#SVGID_5_);}
	.st5{fill:url(#SVGID_6_);}
</style>
<title>icon</title>
<desc>Created with Sketch.</desc>
<linearGradient id="SVGID_1_" gradientUnits="userSpaceOnUse" x1="23.335" y1="54.62" x2="81.335" y2="54.62">
	<stop  offset="0" style="stop-color:#4CAF50"/>
	<stop  offset="1" style="stop-color:#2C7B2F"/>
</linearGradient>
<path class="st0" d="M80.3,34.5l-7.8-7.8c-0.7-0.7-1.6-1.1-2.6-1.1s-1.9,0.3-2.6,1.1l-43,43c-1.4,1.4-1.4,3.7,0,5.1l7.8,7.8
	c0.7,0.7,1.6,1.1,2.6,1.1c0.9,0,1.8-0.4,2.6-1.1l43-43C81.7,38.2,81.7,35.9,80.3,34.5z M34.7,80L27,72.2L56.2,43l7.8,7.8L34.7,80z
	 M66.6,48.2l-7.8-7.8l11.1-11.1l7.8,7.8L66.6,48.2z"/>
<linearGradient id="SVGID_2_" gradientUnits="userSpaceOnUse" x1="-99.755" y1="-20.72" x2="-41.755" y2="-20.72">
	<stop  offset="0" style="stop-color:#4CAF50"/>
	<stop  offset="1" style="stop-color:#2C7B2F"/>
</linearGradient>
<path class="st1" d="M-42.8-40.9l-7.8-7.8c-0.7-0.7-1.6-1.1-2.6-1.1s-1.9,0.3-2.6,1.1l-43,43c-1.4,1.4-1.4,3.7,0,5.1l7.8,7.8
	c0.7,0.7,1.6,1.1,2.6,1.1c0.9,0,1.8-0.4,2.6-1.1l43-43C-41.4-37.2-41.4-39.5-42.8-40.9z M-88.4,4.6l-7.8-7.8l29.3-29.3l7.8,7.8
	L-88.4,4.6z M-56.5-27.2l-7.8-7.8l11.1-11.1l7.8,7.8L-56.5-27.2z"/>
<linearGradient id="SVGID_3_" gradientUnits="userSpaceOnUse" x1="63.21" y1="67.3" x2="81.33" y2="67.3">
	<stop  offset="0" style="stop-color:#4CAF50"/>
	<stop  offset="1" style="stop-color:#2C7B2F"/>
</linearGradient>
<path class="st2" d="M75.3,64.3l-3-6l-3,6l-6,3l6,3l3,6l3-6l6-3L75.3,64.3z M72.3,69.1c-1,0-1.8-0.8-1.8-1.8s0.8-1.8,1.8-1.8
	s1.8,0.8,1.8,1.8S73.3,69.1,72.3,69.1z"/>
<linearGradient id="SVGID_4_" gradientUnits="userSpaceOnUse" x1="43.27" y1="31.055" x2="54.15" y2="31.055">
	<stop  offset="0" style="stop-color:#4CAF50"/>
	<stop  offset="1" style="stop-color:#2C7B2F"/>
</linearGradient>
<polygon class="st3" points="54.2,31 50.5,32.9 48.7,36.5 46.9,32.9 43.3,31 46.9,29.2 48.7,25.6 50.5,29.2 "/>
<linearGradient id="SVGID_5_" gradientUnits="userSpaceOnUse" x1="23.33" y1="34.68" x2="41.46" y2="34.68">
	<stop  offset="0" style="stop-color:#4CAF50"/>
	<stop  offset="1" style="stop-color:#2C7B2F"/>
</linearGradient>
<path class="st4" d="M35.4,31.7l-3-6l-3,6l-6,3l6,3l3,6l3-6l6-3L35.4,31.7z M32.4,36.5c-1,0-1.8-0.8-1.8-1.8s0.8-1.8,1.8-1.8
	s1.8,0.8,1.8,1.8S33.4,36.5,32.4,36.5z"/>
<linearGradient id="SVGID_6_" gradientUnits="userSpaceOnUse" x1="-362.0064" y1="129.0878" x2="-257.4964" y2="250.7478" gradientTransform="matrix(1 0 0 -1 -9.56 114.86)">
	<stop  offset="0" style="stop-color:#8BC34A"/>
	<stop  offset="1" style="stop-color:#2C7B2F"/>
</linearGradient>
<path class="st5" d="M-244.9-88.2c8.5-19.4,5.3-40.4-13.4-56l-41.9-34.8c-2.8-2.2-6.6-2.2-9.4,0l-51,42.5
	c-30,25.5-29.7,66.6,1.1,91.7l7.5,6.3c-8.6,15.3-5.3,34.1,9.8,46.7l11,9.1c2.8,2.2,6.6,2.2,9.4,0l59.7-49.6
	C-243.9-47.6-236.1-68.2-244.9-88.2z M-271.5-40.2l-55,45.8l-6.3-5.2c-14.2-11.8-14.2-30.9,0-42.7l52.1-43.4
	c13-10.9,13.1-28.4,0-39.2c-7.5-6.2-19.6-16.2-19.6-16.2c-2.7-2.1-6.6-2.1-9.3,0l-32.9,27.3c-15.2,12.6-15.3,33-0.1,45.6l11.2,9.3
	c-11.9,9.9-11.4,9.5-13.1,11.1l-5.6-4.6c-12.5-10.2-19.4-23.9-19.4-38.5c0-14.2,6.6-27.6,18.4-37.6l46.3-38.6l37.2,31
	c20.4,17,18.6,43.2-1.8,60.2l-54.3,44.9c-2.2,1.6-2.6,4.7-1,6.8c0.3,0.4,0.6,0.7,1,1c2.8,2.2,6.6,2.2,9.4,0l54.3-44.9
	c2-1.7,3.9-3.5,5.7-5.4C-252.8-61-260.1-49.7-271.5-40.2L-271.5-40.2z M-299.1-86l-8.5-7l6.9-5.8c2.2-1.6,2.6-4.7,1-6.8
	c-0.3-0.4-0.6-0.7-1-1c-2.8-2.2-6.6-2.2-9.4,0l-7.8,6.5c-3.9,2.9-4.7,8.5-1.7,12.4c0.5,0.7,1.1,1.2,1.7,1.7l9.4,7.8l-13.6,11.3
	l-11.2-9.3c-10-8.3-9.9-21.7,0.1-30l28.3-23.3l15,12.4c7.9,6.5,7.8,17.1-0.1,23.6L-299.1-86z"/>
</svg>
