<?xml version="1.0" encoding="utf-8"?>
<!-- Generator: Adobe Illustrator 20.0.0, SVG Export Plug-In . SVG Version: 6.00 Build 0)  -->
<svg version="1.1" id="Layer_1" xmlns="http://www.w3.org/2000/svg" xmlns:xlink="http://www.w3.org/1999/xlink" x="0px" y="0px"
	 viewBox="0 0 105 105" style="enable-background:new 0 0 105 105;" xml:space="preserve">
<style type="text/css">
	.st0{fill:url(#SVGID_1_);}
</style>
<title>icon</title>
<desc>Created with Sketch.</desc>
<linearGradient id="SVGID_1_" gradientUnits="userSpaceOnUse" x1="16.775" y1="52.5309" x2="87.625" y2="52.5309" gradientTransform="matrix(1 0 0 -1 0 106)">
	<stop  offset="0" style="stop-color:#4CAF50"/>
	<stop  offset="1" style="stop-color:#2C7B2F"/>
</linearGradient>
<path class="st0" d="M44.9,84.9L41.8,84c-0.4-0.1-0.6-0.5-0.5-0.9l17.3-60.6c0.1-0.4,0.5-0.6,0.9-0.5l3.1,0.9
	c0.4,0.1,0.6,0.5,0.5,0.9L45.8,84.4C45.7,84.8,45.3,85.1,44.9,84.9L44.9,84.9z M35.6,69.5l2.3-2.6c0.2-0.3,0.2-0.7-0.1-0.9L23,53.5
	l14.9-12.6c0.3-0.2,0.3-0.6,0.1-0.9l-2.3-2.6c-0.2-0.3-0.6-0.3-0.9,0L17,53c-0.3,0.2-0.3,0.7,0,0.9l17.7,15.6
	C35,69.8,35.4,69.8,35.6,69.5L35.6,69.5z M69.7,69.6L87.4,54c0.3-0.2,0.3-0.7,0-0.9L69.7,37.4c-0.3-0.2-0.6-0.2-0.9,0L66.6,40
	c-0.2,0.3-0.2,0.7,0.1,0.9l14.9,12.6l-15,12.6c-0.3,0.2-0.3,0.6-0.1,0.9l2.3,2.6C69.1,69.8,69.5,69.8,69.7,69.6z"/>
</svg>
