<?xml version="1.0" encoding="utf-8"?>
<!-- Generator: Adobe Illustrator 20.0.0, SVG Export Plug-In . SVG Version: 6.00 Build 0)  -->
<svg version="1.1" id="Layer_1" xmlns="http://www.w3.org/2000/svg" xmlns:xlink="http://www.w3.org/1999/xlink" x="0px" y="0px"
	 viewBox="0 0 105 105" style="enable-background:new 0 0 105 105;" xml:space="preserve">
<style type="text/css">
	.st0{fill:url(#SVGID_1_);}
	.st1{fill:url(#SVGID_2_);}
</style>
<title>icon</title>
<desc>Created with Sketch.</desc>
<linearGradient id="SVGID_1_" gradientUnits="userSpaceOnUse" x1="16.8202" y1="53.4953" x2="87.657" y2="53.4953">
	<stop  offset="0" style="stop-color:#8BC34A"/>
	<stop  offset="1" style="stop-color:#2C7B2F"/>
</linearGradient>
<path class="st0" d="M44.9,84.9l-3.1-0.9c-0.4-0.1-0.6-0.5-0.5-0.9l17.3-60.6c0.1-0.4,0.5-0.6,0.9-0.5l3.1,0.9
	c0.4,0.1,0.6,0.5,0.5,0.9L45.8,84.4C45.7,84.8,45.3,85.1,44.9,84.9L44.9,84.9z M35.6,69.5l2.3-2.6c0.2-0.3,0.2-0.7-0.1-0.9L23,53.5
	l14.9-12.6c0.3-0.2,0.3-0.6,0.1-0.9l-2.3-2.6c-0.2-0.3-0.6-0.3-0.9,0L17,53c-0.3,0.2-0.3,0.7,0,0.9l17.7,15.6
	C35,69.8,35.4,69.8,35.6,69.5L35.6,69.5z M69.7,69.6l17.7-15.6c0.3-0.2,0.3-0.7,0-0.9L69.7,37.4c-0.3-0.2-0.6-0.2-0.9,0L66.6,40
	c-0.2,0.3-0.2,0.7,0.1,0.9l14.9,12.6L66.6,66.1c-0.3,0.2-0.3,0.6-0.1,0.9l2.3,2.6C69.1,69.8,69.5,69.8,69.7,69.6z"/>
<linearGradient id="SVGID_2_" gradientUnits="userSpaceOnUse" x1="216.9936" y1="30.0878" x2="321.5036" y2="151.7478" gradientTransform="matrix(1 0 0 -1 -9.56 114.86)">
	<stop  offset="0" style="stop-color:#8BC34A"/>
	<stop  offset="1" style="stop-color:#2C7B2F"/>
</linearGradient>
<path class="st1" d="M334.1,10.8c8.5-19.4,5.3-40.4-13.4-56L278.8-80c-2.8-2.2-6.6-2.2-9.4,0l-51,42.5c-30,25.5-29.7,66.6,1.1,91.7
	l7.5,6.3c-8.6,15.3-5.3,34.1,9.8,46.7l10.9,9.1c2.8,2.2,6.6,2.2,9.4,0l59.7-49.6C335.1,51.4,342.9,30.8,334.1,10.8z M307.5,58.8
	l-55,45.8l-6.3-5.2c-14.2-11.8-14.2-30.9,0-42.7l52.1-43.4c13-10.9,13.1-28.4,0-39.2c-7.5-6.2-19.6-16.2-19.6-16.2
	c-2.7-2.1-6.6-2.1-9.3,0L236.5-15c-15.2,12.6-15.3,33-0.1,45.6l11.2,9.3c-11.9,9.9-11.4,9.5-13.1,11.1l-5.6-4.6
	c-12.5-10.2-19.4-23.9-19.4-38.5c0-14.2,6.6-27.6,18.4-37.6l46.3-38.6l37.2,31c20.4,17,18.6,43.2-1.8,60.2l-54.3,44.9
	c-2.2,1.6-2.6,4.7-1,6.8c0.3,0.4,0.6,0.7,1,1c2.8,2.2,6.6,2.2,9.4,0l54.3-44.9c2-1.7,3.9-3.5,5.7-5.4
	C326.2,38,318.9,49.3,307.5,58.8L307.5,58.8z M279.9,13l-8.5-7l6.9-5.8c2.2-1.6,2.6-4.7,1-6.8c-0.3-0.4-0.6-0.7-1-1
	c-2.8-2.2-6.6-2.2-9.4,0l-7.8,6.5c-3.9,2.9-4.7,8.5-1.7,12.4c0.5,0.7,1.1,1.2,1.7,1.7l9.4,7.8l-13.6,11.3l-11.2-9.3
	c-10-8.3-9.9-21.7,0.1-30l28.3-23.3l15,12.4c7.9,6.5,7.8,17.1-0.1,23.6L279.9,13z"/>
</svg>
