<?xml version="1.0" encoding="utf-8"?>
<!-- Generator: Adobe Illustrator 20.0.0, SVG Export Plug-In . SVG Version: 6.00 Build 0)  -->
<svg version="1.1" id="Layer_1" xmlns="http://www.w3.org/2000/svg" xmlns:xlink="http://www.w3.org/1999/xlink" x="0px" y="0px"
	 viewBox="0 0 105 105" style="enable-background:new 0 0 105 105;" xml:space="preserve">
<style type="text/css">
	.st0{fill:url(#SVGID_1_);}
	.st1{fill:url(#SVGID_2_);}
</style>
<title>icon</title>
<desc>Created with Sketch.</desc>
<linearGradient id="SVGID_1_" gradientUnits="userSpaceOnUse" x1="21" y1="52.3998" x2="85" y2="52.3998">
	<stop  offset="0" style="stop-color:#8BC34A"/>
	<stop  offset="1" style="stop-color:#2C7B2F"/>
</linearGradient>
<path class="st0" d="M53,33.2c-6.2,0-11.2,5-11.2,11.2c0,0.9,0.7,1.6,1.6,1.6c0.9,0,1.6-0.7,1.6-1.6c0-4.4,3.6-8,8-8
	c0.9,0,1.6-0.7,1.6-1.6S53.9,33.2,53,33.2z M53,26.8c-10.3,0-17.6,8.4-17.6,17.6c0,4.3,1.5,8.4,4.4,11.6c2.6,2.9,5,7.7,5.2,9.2
	l0,7.5c0,0.3,0.1,0.6,0.3,0.9l2.4,3.7c0.3,0.4,0.8,0.7,1.3,0.7h7.9c0.5,0,1-0.3,1.3-0.7l2.4-3.7c0.2-0.3,0.3-0.6,0.3-0.9l0-7.5
	c0.2-1.6,2.7-6.3,5.2-9.2c6.4-7.3,5.7-18.4-1.6-24.8C61.4,28.3,57.3,26.8,53,26.8z M57.8,72.2l-1.7,2.6h-6.2l-1.7-2.6v-0.6h9.6
	L57.8,72.2z M57.8,68.4h-9.6l0-3.2h9.6V68.4z M63.8,53.9c-1.4,1.6-3.6,4.8-5.1,8.1H47.2c-1.4-3.3-3.7-6.5-5.1-8.1
	c-2.3-2.6-3.6-6-3.6-9.5c0-7.7,6-14.4,14.4-14.4c7.9,0,14.4,6.5,14.4,14.4C67.4,47.9,66.1,51.2,63.8,53.9L63.8,53.9z M30.6,44.4
	c0-0.9-0.7-1.6-1.6-1.6h-6.4c-0.9,0-1.6,0.7-1.6,1.6s0.7,1.6,1.6,1.6H29C29.9,46,30.6,45.3,30.6,44.4z M73.8,33.2
	c0.2,0,0.5-0.1,0.7-0.2l6.4-3.2c0.8-0.4,1.1-1.4,0.7-2.1c-0.4-0.8-1.4-1.1-2.1-0.7c0,0,0,0,0,0l-6.4,3.2c-0.8,0.4-1.1,1.4-0.7,2.1
	C72.6,32.9,73.2,33.2,73.8,33.2z M83.4,42.8H77c-0.9,0-1.6,0.7-1.6,1.6S76.1,46,77,46h6.4c0.9,0,1.6-0.7,1.6-1.6
	S84.3,42.8,83.4,42.8z M32.9,30.2L26.5,27c-0.8-0.4-1.8-0.1-2.1,0.7c-0.4,0.8-0.1,1.8,0.7,2.1l6.4,3.2c0.2,0.1,0.5,0.2,0.7,0.2
	c0.9,0,1.6-0.7,1.6-1.6C33.8,31,33.5,30.4,32.9,30.2z M80.9,59l-6.4-3.2c-0.8-0.4-1.8-0.1-2.1,0.7c-0.4,0.8-0.1,1.8,0.7,2.1l6.4,3.2
	c0.8,0.4,1.8,0.1,2.1-0.7C82,60.3,81.7,59.4,80.9,59z M32.2,55.6c-0.2,0-0.5,0.1-0.7,0.2L25.1,59c-0.8,0.4-1.1,1.4-0.7,2.1
	s1.4,1.1,2.1,0.7l6.4-3.2c0.8-0.4,1.1-1.4,0.7-2.1C33.4,55.9,32.8,55.6,32.2,55.6z"/>
<linearGradient id="SVGID_2_" gradientUnits="userSpaceOnUse" x1="-440.0064" y1="30.2348" x2="-335.4964" y2="151.8948" gradientTransform="matrix(1 0 0 -1 -9.56 114.86)">
	<stop  offset="0" style="stop-color:#8BC34A"/>
	<stop  offset="1" style="stop-color:#2C7B2F"/>
</linearGradient>
<path class="st1" d="M-322.9,10.7c8.5-19.4,5.3-40.4-13.4-56l-41.9-34.8c-2.8-2.2-6.6-2.2-9.4,0l-51,42.5
	c-30,25.5-29.7,66.6,1.1,91.7l7.5,6.3c-8.6,15.3-5.3,34.1,9.8,46.7l11,9.1c2.8,2.2,6.6,2.2,9.4,0l59.7-49.6
	C-321.9,51.3-314.1,30.6-322.9,10.7z M-349.5,58.7l-55,45.8l-6.3-5.2c-14.2-11.8-14.2-30.9,0-42.7l52.1-43.4
	c13-10.9,13.1-28.4,0-39.2c-7.5-6.2-19.6-16.2-19.6-16.2c-2.7-2.1-6.6-2.1-9.3,0l-32.9,27.2c-15.2,12.6-15.3,33-0.1,45.6l11.2,9.3
	c-11.9,9.9-11.4,9.5-13.1,11.1l-5.6-4.6c-12.5-10.2-19.4-23.9-19.4-38.5c0-14.2,6.6-27.6,18.4-37.6l46.3-38.6l37.2,31
	c20.4,17,18.6,43.2-1.8,60.2l-54.3,44.9c-2.2,1.6-2.6,4.7-1,6.8c0.3,0.4,0.6,0.7,1,1c2.8,2.2,6.6,2.2,9.4,0l54.3-44.9
	c2-1.7,3.9-3.5,5.7-5.4C-330.8,37.9-338.1,49.2-349.5,58.7L-349.5,58.7z M-377.1,12.9l-8.5-7l6.9-5.8c2.2-1.6,2.6-4.7,1-6.8
	c-0.3-0.4-0.6-0.7-1-1c-2.8-2.2-6.6-2.2-9.4,0l-7.8,6.5c-3.9,2.9-4.7,8.5-1.7,12.4c0.5,0.7,1.1,1.2,1.7,1.7l9.4,7.8L-400.1,32
	l-11.2-9.3c-10-8.3-9.9-21.7,0.1-30l28.3-23.3l15,12.4c7.9,6.5,7.8,17.1-0.1,23.6L-377.1,12.9z"/>
</svg>
