<?xml version="1.0" encoding="utf-8"?>
<!-- Generator: Adobe Illustrator 20.0.0, SVG Export Plug-In . SVG Version: 6.00 Build 0)  -->
<svg version="1.1" id="Layer_1" xmlns="http://www.w3.org/2000/svg" xmlns:xlink="http://www.w3.org/1999/xlink" x="0px" y="0px"
	 viewBox="0 0 105 105" style="enable-background:new 0 0 105 105;" xml:space="preserve">
<style type="text/css">
	.st0{fill:url(#SVGID_1_);}
</style>
<title>icon</title>
<desc>Created with Sketch.</desc>
<linearGradient id="SVGID_1_" gradientUnits="userSpaceOnUse" x1="21" y1="53.6" x2="85" y2="53.6" gradientTransform="matrix(1 0 0 -1 0 106)">
	<stop  offset="0" style="stop-color:#4CAF50"/>
	<stop  offset="1" style="stop-color:#2C7B2F"/>
</linearGradient>
<path class="st0" d="M53,33.2c-6.2,0-11.2,5-11.2,11.2c0,0.9,0.7,1.6,1.6,1.6c0.9,0,1.6-0.7,1.6-1.6c0-4.4,3.6-8,8-8
	c0.9,0,1.6-0.7,1.6-1.6S53.9,33.2,53,33.2z M53,26.8c-10.3,0-17.6,8.4-17.6,17.6c0,4.3,1.5,8.4,4.4,11.6c2.6,2.9,5,7.7,5.2,9.2v7.5
	c0,0.3,0.1,0.6,0.3,0.9l2.4,3.7C48,77.7,48.5,78,49,78h7.9c0.5,0,1-0.3,1.3-0.7l2.4-3.7c0.2-0.3,0.3-0.6,0.3-0.9v-7.5
	c0.2-1.6,2.7-6.3,5.2-9.2c6.4-7.3,5.7-18.4-1.6-24.8C61.4,28.3,57.3,26.8,53,26.8z M57.8,72.2l-1.7,2.6h-6.2l-1.7-2.6v-0.6h9.6
	L57.8,72.2z M57.8,68.4h-9.6v-3.2h9.6C57.8,65.2,57.8,68.4,57.8,68.4z M63.8,53.9c-1.4,1.6-3.6,4.8-5.1,8.1H47.2
	c-1.4-3.3-3.7-6.5-5.1-8.1c-2.3-2.6-3.6-6-3.6-9.5c0-7.7,6-14.4,14.4-14.4c7.9,0,14.4,6.5,14.4,14.4C67.4,47.9,66.1,51.2,63.8,53.9
	L63.8,53.9z M30.6,44.4c0-0.9-0.7-1.6-1.6-1.6h-6.4c-0.9,0-1.6,0.7-1.6,1.6s0.7,1.6,1.6,1.6H29C29.9,46,30.6,45.3,30.6,44.4z
	 M73.8,33.2c0.2,0,0.5-0.1,0.7-0.2l6.4-3.2c0.8-0.4,1.1-1.4,0.7-2.1c-0.4-0.8-1.4-1.1-2.1-0.7l0,0l-6.4,3.2
	c-0.8,0.4-1.1,1.4-0.7,2.1C72.6,32.9,73.2,33.2,73.8,33.2z M83.4,42.8H77c-0.9,0-1.6,0.7-1.6,1.6S76.1,46,77,46h6.4
	c0.9,0,1.6-0.7,1.6-1.6S84.3,42.8,83.4,42.8z M32.9,30.2L26.5,27c-0.8-0.4-1.8-0.1-2.1,0.7c-0.4,0.8-0.1,1.8,0.7,2.1l6.4,3.2
	c0.2,0.1,0.5,0.2,0.7,0.2c0.9,0,1.6-0.7,1.6-1.6C33.8,31,33.5,30.4,32.9,30.2z M80.9,59l-6.4-3.2c-0.8-0.4-1.8-0.1-2.1,0.7
	c-0.4,0.8-0.1,1.8,0.7,2.1l6.4,3.2c0.8,0.4,1.8,0.1,2.1-0.7C82,60.3,81.7,59.4,80.9,59z M32.2,55.6c-0.2,0-0.5,0.1-0.7,0.2L25.1,59
	c-0.8,0.4-1.1,1.4-0.7,2.1s1.4,1.1,2.1,0.7l6.4-3.2c0.8-0.4,1.1-1.4,0.7-2.1C33.4,55.9,32.8,55.6,32.2,55.6z"/>
</svg>
