<svg id="Layer_1" height="512" viewBox="0 0 512 512" width="512" xmlns="http://www.w3.org/2000/svg" data-name="Layer 1"><g id="_Path_" data-name=" Path "><path d="m18 317h476v68h-476z" fill="#d4e1f4"/><path d="m494.24 19.85v297.38h-476.48v-297.38z" fill="#acb2ba"/><path d="m159 470h194v22h-194z" fill="#d4e1f4"/></g><circle cx="256" cy="350.12" fill="#b2cee4" r="13.45"/><path d="m310.06 385.19 13.4 84.58h-134.92l13.4-84.58z" fill="#b2cee4"/><path d="m47.76 317.23h-29.76v67.77h30v-67.77z" fill="#bccee2"/><path d="m47.76 19.85h-30v297.38h.24 29.76z" fill="#8b95a0"/><path d="m159 470h30v22h-30z" fill="#bccee2"/><path d="m201.94 385.19-13.4 84.58h30l13.4-84.58z" fill="#9fbfd3"/><path d="m53.27 55.36h405.46v225.59h-405.46z" fill="#74b4e8"/><path d="m53 55h40v226h-40z" fill="#63a5d3"/><g fill="#284268"><path d="m494.238 14h-476.476a5.673 5.673 0 0 0 -5.762 5.848v365.34a5.643 5.643 0 0 0 5.762 5.812h177.155l-11.5 73h-24.544a5.7 5.7 0 0 0 -5.873 5.771v22.381a5.766 5.766 0 0 0 5.873 5.848h194.254a5.766 5.766 0 0 0 5.873-5.848v-22.381a5.7 5.7 0 0 0 -5.873-5.771h-24.539l-11.5-73h177.15a5.643 5.643 0 0 0 5.762-5.812v-365.34a5.673 5.673 0 0 0 -5.762-5.848zm-147.238 462v10h-182v-10zm-151.439-12 11.506-73h97.866l11.506 73zm292.439-85h-464v-56h464zm0-68h-464v-285h464z"/><path d="m256 369.572a19.452 19.452 0 1 0 -19.452-19.452 19.474 19.474 0 0 0 19.452 19.452zm0-26.9a7.452 7.452 0 1 1 -7.452 7.452 7.46 7.46 0 0 1 7.452-7.456z"/><path d="m464 55a6 6 0 0 0 -6-6h-405a6 6 0 0 0 -6 6v226a6 6 0 0 0 6 6h405a6 6 0 0 0 6-6zm-405 6h394v214h-394z"/><path d="m80 80h12v15h-12z"/><path d="m80 107h12v95h-12z"/></g></svg>