<svg id="Layer_1" height="512" viewBox="0 0 512 512" width="512" xmlns="http://www.w3.org/2000/svg" data-name="Layer 1"><g id="_Path_" data-name=" Path "><path d="m434.39 20.07a26.56 26.56 0 1 1 -26.56 26.56 26.56 26.56 0 0 1 26.56-26.56z" fill="#eb7288"/><path d="m307.14 168.17h67.26v67.26h-67.26z" fill="#74b4e8"/><path d="m185 444h142v55h-142z" fill="#7d8696"/><path d="m222 13h67v67h-67z" fill="#74b4e8"/><path d="m137 168h67v67h-67z" fill="#74b4e8"/><path d="m104.16 46.36a2.437 2.437 0 0 1 .01.27 27.455 27.455 0 1 1 -.01-.27z" fill="#eb7288"/></g><path d="m256 210.85 97.77 115.73-43.08 117.69h-106.06l-46.4-117.69z" fill="#dfe8f4"/><circle cx="256" cy="347.6" fill="#7d8696" r="19.01"/><path d="m185 444h30v55h-30z" fill="#69727f"/><path d="m271 228.605-15-17.755-97.77 115.73 46.4 117.69h30l-46.4-117.69z" fill="#c5cfd8"/><g fill="#284268"><path d="m358.358 322.708-97.775-115.726a6 6 0 0 0 -9.166 0l-97.775 115.726a5.761 5.761 0 0 0 -1 5.938l43.17 109.354h-10.842a6.212 6.212 0 0 0 -5.97 6.271v55a5.749 5.749 0 0 0 5.97 5.729h142.06a5.749 5.749 0 0 0 5.97-5.729v-55a6.212 6.212 0 0 0 -5.97-6.271h-7.756l40.136-109.492a5.757 5.757 0 0 0 -1.052-5.8zm-102.358 11.881a13.008 13.008 0 1 1 -13.008 13.011 13.023 13.023 0 0 1 13.008-13.011zm65 115.411v43h-130v-43zm-14.5-12h-97.789l-43.59-110.42 84.879-100.327v96.069a25.008 25.008 0 1 0 12 0v-96.069l84.943 100.4z"/><path d="m191.502 337.148h12.001v12.419h-12.001z" transform="matrix(.93 -.367 .367 .93 -112.188 96.389)"/><path d="m210.652 356.143h12v71.565h-12z" transform="matrix(.93 -.367 .367 .93 -128.653 106.779)"/><path d="m434.4 79.013a32.587 32.587 0 1 0 -31.959-39.013h-107.441v-27.271a5.564 5.564 0 0 0 -5.748-5.729h-67.264a5.765 5.765 0 0 0 -5.988 5.729v27.271h-106.441a32.575 32.575 0 1 0 -31.954 38.968 32.021 32.021 0 0 0 32.049-26.968h95.594a97.808 97.808 0 0 0 -42.248 80.8v29.2h-26.159a6.015 6.015 0 0 0 -5.841 6.171v67.263a5.509 5.509 0 0 0 5.841 5.566h67.259a5.556 5.556 0 0 0 5.9-5.566v-67.263a6.061 6.061 0 0 0 -5.9-6.171h-29.1v-29.2a85.993 85.993 0 0 1 41-73.081v20.27a6 6 0 0 0 5.988 6.011h67.264a5.8 5.8 0 0 0 5.748-6.007v-20.271a84.723 84.723 0 0 1 42 73.078v29.2h-29.864a6.265 6.265 0 0 0 -6.136 6.171v67.263c0 3.314 2.822 5.566 6.136 5.566h67.264a5.313 5.313 0 0 0 5.6-5.566v-67.263c0-3.314-2.287-6.171-5.6-6.171h-25.4v-29.2c0-32.473-16.634-62.8-43.007-80.8h96.353a32.06 32.06 0 0 0 32.054 27.013zm0-52.947a20.564 20.564 0 1 1 -20.57 20.563 20.587 20.587 0 0 1 20.57-20.563zm-356.795 41.127a20.564 20.564 0 1 1 20.565-20.564 20.587 20.587 0 0 1 -20.565 20.564zm120.395 106.807v55h-55v-55zm85-100h-55v-55h55zm85 100v55h-55v-55z"/></g></svg>