<svg id="Layer_1" height="512" viewBox="0 0 512 512" width="512" xmlns="http://www.w3.org/2000/svg" data-name="Layer 1"><path d="m223 319h66v137h-66z" fill="#acb2ba"/><path d="m223 319h30v137h-30z" fill="#9098a0"/><g id="_Path_" data-name=" Path "><path d="m223 456.06h66v40h-66z" fill="#7d8696"/></g><path d="m268.66 285-25.32 1-.34-1.23v56.23h26v-55.23z" fill="#bec2d6"/><path d="m256 15.94a135.177 135.177 0 0 0 -12.66 269.76q6.255.585 12.66.59t12.66-.59a135.177 135.177 0 0 0 -12.66-269.76z" fill="#bad79d"/><path d="m256 47.33a103.785 103.785 0 1 1 -103.78 103.79 103.784 103.784 0 0 1 103.78-103.79z" fill="#d4e1f4"/><path d="m223 456.06h30v40h-30z" fill="#6a7482"/><path d="m182.22 151.12a103.8 103.8 0 0 1 88.78-102.707 103.788 103.788 0 1 0 -15 206.487 104.644 104.644 0 0 0 15-1.083 103.8 103.8 0 0 1 -88.78-102.697z" fill="#c0cddd"/><g fill="#284268"><path d="m256 260.9a109.783 109.783 0 1 0 -109.783-109.783 109.908 109.908 0 0 0 109.783 109.783zm0-207.566a97.783 97.783 0 1 1 -97.783 97.783 97.893 97.893 0 0 1 97.783-97.783z"/><path d="m214.6 95.8a68.447 68.447 0 0 1 41.4-13.8v-12a80.364 80.364 0 0 0 -48.6 16.206 81.927 81.927 0 0 0 -28.931 41.031l11.466 3.538a69.833 69.833 0 0 1 24.665-34.975z"/><path d="m175.828 138.669a82.406 82.406 0 0 0 -.945 12.331h12a74.919 74.919 0 0 1 .8-10.534z"/><path d="m237 291.058v21.942h-14a6.331 6.331 0 0 0 -6 6.372v176.688a5.95 5.95 0 0 0 6 5.94h66a5.95 5.95 0 0 0 6-5.94v-176.688a6.331 6.331 0 0 0 -6-6.372h-14v-21.942a141.287 141.287 0 0 0 122.344-139.941c0-77.845-63.415-141.177-141.261-141.177s-141.383 63.332-141.383 141.177a141.251 141.251 0 0 0 122.3 139.941zm46 198.942h-54v-28h54zm0-165v125h-54v-125h8v16.44c0 3.313 3.02 5.56 6.333 5.56h25.334c3.313 0 6.333-2.247 6.333-5.56v-16.44zm-34 10v-42.867c3 .1 4.765.161 7 .161s4-.058 7-.161v42.867zm7-313.06a129.177 129.177 0 1 1 -129.177 129.177 129.323 129.323 0 0 1 129.177-129.177z"/></g></svg>