<svg id="Layer_1" height="512" viewBox="0 0 512 512" width="512" xmlns="http://www.w3.org/2000/svg" data-name="Layer 1"><g id="_Path_" data-name=" Path "><path d="m484.72 226.44v59.12l-57.35 9.1a174.831 174.831 0 0 1 -22.86 55.16l34.12 47.01-41.8 41.8-47.01-34.12a174.831 174.831 0 0 1 -55.16 22.86l-9.1 57.35h-59.12l-9.1-57.35a174.831 174.831 0 0 1 -55.16-22.86l-47.01 34.12-41.8-41.8 34.12-47.01a174.831 174.831 0 0 1 -22.86-55.16l-57.35-9.1v-59.12l57.35-9.1a174.831 174.831 0 0 1 22.86-55.16l-34.12-47.01 41.8-41.8 47.01 34.12a174.831 174.831 0 0 1 55.16-22.86l9.1-57.35h59.12l9.1 57.35a174.831 174.831 0 0 1 55.16 22.86l47.01-34.12 41.8 41.8-34.12 47.01a174.831 174.831 0 0 1 22.86 55.16z" fill="#d4e1f4"/></g><path d="m256 128.86a127.14 127.14 0 1 1 -127.14 127.14 127.15 127.15 0 0 1 127.14-127.14z" fill="#eb7288"/><path d="m256 167.46a88.54 88.54 0 1 1 -88.54 88.54 88.539 88.539 0 0 1 88.54-88.54z" fill="#74b4e8"/><circle cx="256" cy="256" fill="#c0c5d9" r="40.04"/><path d="m197.46 256a88.559 88.559 0 0 1 73.54-87.269 88.54 88.54 0 1 0 0 174.538 88.56 88.56 0 0 1 -73.54-87.269z" fill="#66a7d3"/><path d="m137.49 349.82a174.831 174.831 0 0 1 -22.86-55.16l-57.35-9.1v-59.12l57.35-9.1a174.831 174.831 0 0 1 22.86-55.16l-34.12-47.01 29.183-29.183-17.383-12.617-41.8 41.8 34.12 47.01a174.831 174.831 0 0 0 -22.86 55.16l-57.35 9.1v59.12l57.35 9.1a174.831 174.831 0 0 0 22.86 55.16l-34.12 47.01 41.8 41.8 17.383-12.617-29.183-29.183z" fill="#b3d1e7"/><path d="m192.18 404.51-13.031 9.458a174.586 174.586 0 0 0 38.191 13.4l9.1 57.35h30l-9.1-57.35a174.831 174.831 0 0 1 -55.16-22.858z" fill="#b3d1e7"/><path d="m409.447 85.987-12.617-12.617-33.979 24.662a175.644 175.644 0 0 1 16.969 9.458z" fill="#b3d1e7"/><path d="m362.851 413.968 33.979 24.662 12.617-12.617-29.627-21.5a175.644 175.644 0 0 1 -16.969 9.455z" fill="#b3d1e7"/><path d="m247.34 84.63 9.1-57.35h-30l-9.1 57.35a174.586 174.586 0 0 0 -38.191 13.4l13.031 9.458a174.831 174.831 0 0 1 55.16-22.858z" fill="#b3d1e7"/><g fill="#284268"><path d="m256 122.865c-73.411 0-133.136 59.724-133.136 133.135s59.725 133.135 133.136 133.135 133.136-59.724 133.136-133.135-59.725-133.135-133.136-133.135zm0 254.27a121.135 121.135 0 1 1 121.136-121.135 121.272 121.272 0 0 1 -121.136 121.135z"/><path d="m191.778 123.732-5.25-10.791a159.415 159.415 0 0 0 -19.064 10.971l6.689 9.962a147.329 147.329 0 0 1 17.625-10.142z"/><path d="m164.165 141.208-7.5-9.365a158.334 158.334 0 0 0 -59.665 124.157h12a146.4 146.4 0 0 1 55.165-114.792z"/><path d="m485.8 220.519-53.452-8.478a180.183 180.183 0 0 0 -20.593-49.594l31.745-43.754a6 6 0 0 0 -.622-7.768l-41.8-41.8a6 6 0 0 0 -7.769-.612l-43.756 31.76a180.142 180.142 0 0 0 -49.593-20.556l-8.478-53.517a6.125 6.125 0 0 0 -5.926-5.2h-59.112a6.123 6.123 0 0 0 -5.925 5.2l-8.479 53.45a180.233 180.233 0 0 0 -49.593 20.591l-43.755-31.741a6 6 0 0 0 -7.766.622l-41.8 41.8a6 6 0 0 0 -.613 7.77l31.761 43.756a180.094 180.094 0 0 0 -20.555 49.592l-53.519 8.478a6.124 6.124 0 0 0 -5.2 5.926v59.112a6.122 6.122 0 0 0 5.2 5.925l53.452 8.478a180.174 180.174 0 0 0 20.593 49.593l-31.745 43.755a6 6 0 0 0 .622 7.768l41.8 41.8a6 6 0 0 0 7.769.612l43.756-31.76a180.142 180.142 0 0 0 49.593 20.556l8.479 53.521a6.125 6.125 0 0 0 5.926 5.2h59.112a6.123 6.123 0 0 0 5.925-5.2l8.479-53.452a180.233 180.233 0 0 0 49.593-20.591l43.754 31.739a6 6 0 0 0 7.766-.622l41.8-41.8a6 6 0 0 0 .613-7.77l-31.761-43.755a180.133 180.133 0 0 0 20.557-49.594l53.522-8.478a6.124 6.124 0 0 0 5.2-5.926v-59.111a6.122 6.122 0 0 0 -5.205-5.925zm-6.8 59.915-52.435 8.3a6.085 6.085 0 0 0 -4.982 4.611 168.3 168.3 0 0 1 -22.112 53.263 6 6 0 0 0 .2 6.734l31.106 42.864-34.559 34.554-42.866-31.114a6 6 0 0 0 -6.736-.214 168.265 168.265 0 0 1 -53.263 22.077 6.167 6.167 0 0 0 -4.61 5.052l-8.309 52.439h-48.868l-8.305-52.434a6.082 6.082 0 0 0 -4.611-4.982 168.338 168.338 0 0 1 -53.262-22.112 6 6 0 0 0 -6.735.2l-42.864 31.106-34.555-34.562 31.116-42.867a6 6 0 0 0 .213-6.735 168.265 168.265 0 0 1 -22.077-53.264 6.17 6.17 0 0 0 -5.051-4.611l-52.435-8.305v-48.868l52.435-8.305a6.085 6.085 0 0 0 4.982-4.61 168.33 168.33 0 0 1 22.112-53.264 6 6 0 0 0 -.2-6.734l-31.103-42.864 34.559-34.554 42.866 31.114a6 6 0 0 0 6.736.214 168.265 168.265 0 0 1 53.263-22.077 6.167 6.167 0 0 0 4.61-5.052l8.306-52.434h48.868l8.3 52.434a6.082 6.082 0 0 0 4.611 4.982 168.338 168.338 0 0 1 53.262 22.112 6 6 0 0 0 6.735-.2l42.864-31.106 34.555 34.558-31.111 42.871a6 6 0 0 0 -.213 6.735 168.253 168.253 0 0 1 22.077 53.264 6.17 6.17 0 0 0 5.051 4.611l52.435 8.305z"/><path d="m256 161.459a94.541 94.541 0 1 0 94.541 94.541 94.648 94.648 0 0 0 -94.541-94.541zm0 177.082a82.541 82.541 0 1 1 82.541-82.541 82.634 82.634 0 0 1 -82.541 82.541z"/><path d="m256 209.963a46.037 46.037 0 1 0 46.036 46.037 46.088 46.088 0 0 0 -46.036-46.037zm0 80.074a34.037 34.037 0 1 1 34.036-34.037 34.075 34.075 0 0 1 -34.036 34.037z"/></g></svg>