<svg enable-background="new 0 0 32 32" height="512" viewBox="0 0 32 32" width="512" xmlns="http://www.w3.org/2000/svg"><path d="m26 32h-20c-3.314 0-6-2.686-6-6v-20c0-3.314 2.686-6 6-6h20c3.314 0 6 2.686 6 6v20c0 3.314-2.686 6-6 6z" fill="#fff9dd"/><path d="m23.797 11.316c-.053-.167-.188-.294-.358-.335-.169-.042-.349.008-.472.132l-2.112 2.112-1.617-.463-.463-1.617 2.112-2.112c.124-.123.174-.302.132-.472-.041-.17-.168-.306-.335-.358-.426-.135-.881-.203-1.351-.203-2.573 0-4.667 2.093-4.667 4.667 0 .545.091 1.071.272 1.568l-6.352 6.352c-.378.378-.586.879-.586 1.413s.208 1.035.587 1.413c.377.379.879.587 1.413.587s1.035-.208 1.413-.587l6.352-6.352c.497.18 1.023.272 1.568.272 2.573 0 4.667-2.093 4.667-4.667 0-.469-.068-.924-.203-1.35z" fill="#ffd200"/></svg>