<svg xmlns="http://www.w3.org/2000/svg" xmlns:xlink="http://www.w3.org/1999/xlink" viewBox="0 0 129.68 133.98"><defs><style>.cls-1{fill:url(#Degradado_sin_nombre_7);}.cls-2,.cls-3{fill:none;}.cls-2{stroke:#fafafa;stroke-miterlimit:10;stroke-width:2px;}.cls-4{fill:#fff;}</style><linearGradient id="Degradado_sin_nombre_7" x1="20.34" y1="150.65" x2="109.35" y2="61.64" gradientTransform="matrix(1, 0, 0, -1, 0, 170.98)" gradientUnits="userSpaceOnUse"><stop offset="0" stop-color="#916bac"/><stop offset="0.12" stop-color="#8766a9"/><stop offset="0.7" stop-color="#5e519e"/><stop offset="1" stop-color="#4e4999"/></linearGradient></defs><g id="Layer_2" data-name="Layer 2"><g id="Layer_1-2" data-name="Layer 1"><path class="cls-1" d="M104.66,107.25l-3.49,9.16a9,9,0,0,1-9.84,5.68l-9.67-1.56a4.56,4.56,0,0,0-3.55,1l-7.6,6.19a9,9,0,0,1-11.35,0l-7.59-6.19a4.71,4.71,0,0,0-1.68-.86,4.54,4.54,0,0,0-1.87-.09l-9.68,1.55a9,9,0,0,1-9.83-5.67L25,107.25a4.62,4.62,0,0,0-2.6-2.6l-9.15-3.49a8.92,8.92,0,0,1-4.59-3.9A9,9,0,0,1,7.6,91.33l1.56-9.67a4.76,4.76,0,0,0-.1-1.88,4.58,4.58,0,0,0-.86-1.67L2,70.51A9,9,0,0,1,2,59.17L8.2,51.56a4.58,4.58,0,0,0,.86-1.67A4.76,4.76,0,0,0,9.16,48L7.6,38.34a9,9,0,0,1,1.09-5.93,8.92,8.92,0,0,1,4.59-3.9L22.43,25A4.31,4.31,0,0,0,24,24a4.5,4.5,0,0,0,1-1.58l3.49-9.15A9,9,0,0,1,38.35,7.6L48,9.15a4.58,4.58,0,0,0,1.88-.1,4.49,4.49,0,0,0,1.67-.85L59.17,2A9,9,0,0,1,70.52,2l7.6,6.18a4.53,4.53,0,0,0,3.55,1L91.34,7.6a9,9,0,0,1,9.83,5.67l3.49,9.15a4.5,4.5,0,0,0,1,1.58,4.31,4.31,0,0,0,1.57,1l9.16,3.49a9,9,0,0,1,5.67,9.84L120.54,48a4.46,4.46,0,0,0,.94,3.54l6.19,7.6a9,9,0,0,1,0,11.35l-6.19,7.6a4.56,4.56,0,0,0-1,3.55l1.56,9.68a9,9,0,0,1-5.68,9.83l-9.15,3.49a4.49,4.49,0,0,0-2.6,2.59Z"/><path class="cls-2" d="M103.12,105.82l-3.35,8.79A8.69,8.69,0,0,1,96,119a8.6,8.6,0,0,1-5.68,1l-9.28-1.49a4.21,4.21,0,0,0-1.8.09,4.35,4.35,0,0,0-1.6.82l-7.29,5.93a8.61,8.61,0,0,1-10.89,0l-7.28-5.93a4.32,4.32,0,0,0-3.41-.91l-9.28,1.49a8.64,8.64,0,0,1-9.43-5.45l-3.34-8.78a4.28,4.28,0,0,0-1-1.51,4.33,4.33,0,0,0-1.51-1L15.47,100A8.62,8.62,0,0,1,10,90.55l1.49-9.27a4.54,4.54,0,0,0-.09-1.8,4.39,4.39,0,0,0-.82-1.61L4.68,70.59a8.61,8.61,0,0,1,0-10.89l5.93-7.29a4.39,4.39,0,0,0,.82-1.61,4.54,4.54,0,0,0,.09-1.8L10,39.73a8.6,8.6,0,0,1,5.44-9.43L24.25,27a4.35,4.35,0,0,0,1.51-1,4.11,4.11,0,0,0,1-1.51l3.35-8.78a8.65,8.65,0,0,1,9.43-5.44l9.28,1.49a4.32,4.32,0,0,0,1.79-.09,4.47,4.47,0,0,0,1.61-.82l7.29-5.93a8.63,8.63,0,0,1,10.88,0l7.29,5.93a4.39,4.39,0,0,0,1.61.82,4.2,4.2,0,0,0,1.8.09l9.27-1.49a8.63,8.63,0,0,1,9.43,5.44l3.35,8.78a4.24,4.24,0,0,0,1,1.51,4.39,4.39,0,0,0,1.52,1l8.77,3.34a8.64,8.64,0,0,1,5.45,9.43L118.35,49a4.21,4.21,0,0,0,.09,1.8,4.25,4.25,0,0,0,.81,1.6l5.93,7.29a8.6,8.6,0,0,1,0,10.88l-5.93,7.29a4.47,4.47,0,0,0-.82,1.61,4.55,4.55,0,0,0-.09,1.8l1.49,9.28a8.62,8.62,0,0,1-5.44,9.43l-8.78,3.35a4.27,4.27,0,0,0-2.49,2.48Z"/><rect class="cls-3" y="4.31" width="129.68" height="129.68"/><path class="cls-4" d="M62.53,84.14v21.1L65,107.7l2.46-2.46h0V84.14h8V79.67H69.82V75.94h1.42V54.59h4.45V46.9h10V39.2h-7.3V30.51H51.68V39.2h-7.3v7.7h10v7.69h4.45V75.94h1.42v3.73H54.52v4.47Z"/></g></g></svg>