<svg id="Layer_1" data-name="Layer 1" xmlns="http://www.w3.org/2000/svg" xmlns:xlink="http://www.w3.org/1999/xlink" viewBox="0 0 189.17 37.43"><defs><style>.cls-1{fill:#fff;}.cls-2{fill:url(#Degradado_sin_nombre_7);}.cls-3,.cls-4{fill:none;}.cls-3{stroke:#f9f9f9;stroke-miterlimit:10;stroke-width:0.5px;}</style><linearGradient id="Degradado_sin_nombre_7" x1="164.45" y1="40.06" x2="189.32" y2="15.19" gradientTransform="matrix(1, 0, 0, -1, 0, 52)" gradientUnits="userSpaceOnUse"><stop offset="0" stop-color="#916bac"/><stop offset="0.12" stop-color="#8766a9"/><stop offset="0.7" stop-color="#5e519e"/><stop offset="1" stop-color="#4e4999"/></linearGradient></defs><path class="cls-1" d="M26.1,32H22.57a1,1,0,0,1-.74-.31,1,1,0,0,1-.32-.75V25.06a1.52,1.52,0,1,0-3,0v8.39a1,1,0,0,1-.31.75,1.06,1.06,0,0,1-.75.31h-7a4.41,4.41,0,0,1-3.22-1.35,4.49,4.49,0,0,1-1.36-3.3,4.77,4.77,0,0,1,2.58-4.23l.71-.36a.28.28,0,0,1,.12,0l.09,0a.26.26,0,0,1,.15.14l.72,1.42a.3.3,0,0,1,.05.14c0,.09-.06.16-.17.21l-.71.37a2.46,2.46,0,0,0-1,1,2.56,2.56,0,0,0-.39,1.37,2.45,2.45,0,0,0,.74,1.79,2.51,2.51,0,0,0,1.79.74h5.88V25.06a3.53,3.53,0,0,1,1.07-2.58,3.64,3.64,0,0,1,6.21,2.58v4.8H26.1Zm-14,4.52a.23.23,0,0,1,.26.26v1.55a.24.24,0,0,1-.26.27H10.64c-.18,0-.26-.09-.26-.27V36.76a.23.23,0,0,1,.26-.26Zm3.18,0a.24.24,0,0,1,.27.26v1.55a.24.24,0,0,1-.27.27H13.83c-.19,0-.28-.09-.28-.27V36.76c0-.17.09-.26.28-.26Z" transform="translate(-5.83 -6.26)"/><path class="cls-1" d="M42.76,21.8a.24.24,0,0,1,.27.26v7.05A2.7,2.7,0,0,1,40.17,32H38.76a3.43,3.43,0,0,1-2.29-.7,2.8,2.8,0,0,1-2,.7H33.09a3.35,3.35,0,0,1-2.27-.7,2.82,2.82,0,0,1-2,.7H25.52V29.86h3.35a.86.86,0,0,0,.55-.16.84.84,0,0,0,.16-.58V22.06a.23.23,0,0,1,.26-.26h1.6a.23.23,0,0,1,.26.26v7.32a.39.39,0,0,0,.07.28,1.57,1.57,0,0,0,.95.2h1.77a.77.77,0,0,0,.58-.16.8.8,0,0,0,.17-.58V22.6a.24.24,0,0,1,.27-.27h1.6c.16,0,.25.09.25.27v6.78c0,.15,0,.24.08.28a1.49,1.49,0,0,0,.94.2h1.77a.63.63,0,0,0,.76-.74V22.06a.23.23,0,0,1,.26-.26Z" transform="translate(-5.83 -6.26)"/><path class="cls-1" d="M59.52,21.81a.23.23,0,0,1,.26.26v8.77a4.64,4.64,0,1,1-9.28,0v-5c0-.18.09-.28.26-.28h1.59a.25.25,0,0,1,.27.28v5a2.42,2.42,0,0,0,.74,1.78,2.52,2.52,0,0,0,4.3-1.78V22.07a.24.24,0,0,1,.27-.26Zm-5.64-.34a.24.24,0,0,1-.27-.26V19.66a.24.24,0,0,1,.27-.26h1.46a.23.23,0,0,1,.26.26v1.55a.23.23,0,0,1-.26.26Z" transform="translate(-5.83 -6.26)"/><path class="cls-1" d="M62.52,15.67a.19.19,0,0,1-.21-.21v-.64a.19.19,0,0,1,.21-.21h.6V13.43a1.64,1.64,0,0,1,.5-1.21,1.68,1.68,0,0,1,1.23-.51,1.6,1.6,0,0,1,1.58,1l.12.29a.31.31,0,0,1,0,.08.24.24,0,0,1,0,.08.21.21,0,0,1-.11.13l-.59.24-.1,0a.18.18,0,0,1-.17-.14l-.13-.29a.6.6,0,0,0-.6-.41.66.66,0,0,0-.48.2.64.64,0,0,0-.19.47v1.18h2.21a.19.19,0,0,1,.21.21v.64a.19.19,0,0,1-.21.21Zm2.86,1.27c.18,0,.26.09.26.27V31.72a.23.23,0,0,1-.26.26H63.81c-.19,0-.28-.09-.28-.26V17.21c0-.18.09-.27.28-.27Z" transform="translate(-5.83 -6.26)"/><path class="cls-1" d="M94.14,32H90.61a1.06,1.06,0,0,1-1-1.06V25.06A1.54,1.54,0,0,0,88,23.53,1.45,1.45,0,0,0,87,24a1.47,1.47,0,0,0-.45,1.08v8.39a1,1,0,0,1-.31.75,1,1,0,0,1-.75.31h-7a4.43,4.43,0,0,1-3.23-1.35,4.49,4.49,0,0,1-1.36-3.3,4.77,4.77,0,0,1,2.58-4.23l.71-.36a.28.28,0,0,1,.12,0l.09,0a.26.26,0,0,1,.15.14l.72,1.42a.3.3,0,0,1,.05.14c0,.09-.06.16-.17.21l-.7.37a2.35,2.35,0,0,0-1,1A2.56,2.56,0,0,0,76,29.86a2.44,2.44,0,0,0,.73,1.79,2.51,2.51,0,0,0,1.79.74h5.88V25.06a3.53,3.53,0,0,1,1.07-2.58,3.64,3.64,0,0,1,6.21,2.58v4.8h2.47Zm-14,4.52a.23.23,0,0,1,.26.26v1.55a.24.24,0,0,1-.26.27H78.68c-.18,0-.26-.09-.26-.27V36.76a.23.23,0,0,1,.26-.26Zm3.18,0a.24.24,0,0,1,.27.26v1.55a.24.24,0,0,1-.27.27H81.87a.25.25,0,0,1-.28-.27V36.76c0-.17.1-.26.28-.26Z" transform="translate(-5.83 -6.26)"/><path class="cls-1" d="M110.8,21.8c.18,0,.28.09.28.26v7.05A2.71,2.71,0,0,1,108.21,32H106.8a3.44,3.44,0,0,1-2.29-.7,2.8,2.8,0,0,1-2,.7h-1.41a3.35,3.35,0,0,1-2.27-.7,2.8,2.8,0,0,1-2,.7H93.56V29.86h3.35a.86.86,0,0,0,.55-.16.84.84,0,0,0,.16-.58V22.06a.24.24,0,0,1,.27-.26h1.59a.23.23,0,0,1,.26.26v7.32a.39.39,0,0,0,.07.28,1.57,1.57,0,0,0,1,.2h1.77a.77.77,0,0,0,.58-.16.8.8,0,0,0,.17-.58V22.6a.24.24,0,0,1,.27-.27h1.6c.16,0,.25.09.25.27v6.78c0,.15,0,.24.08.28a1.49,1.49,0,0,0,.94.2h1.77a.63.63,0,0,0,.76-.74V22.06a.23.23,0,0,1,.26-.26Z" transform="translate(-5.83 -6.26)"/><path class="cls-1" d="M132.74,22a.24.24,0,0,1,.27.27V29.1A2.71,2.71,0,0,1,130.14,32h-7a4.45,4.45,0,0,1-3.27-1.35,4.53,4.53,0,0,1-1.37-3.3,4.8,4.8,0,0,1,2.59-4.23l.7-.35.13,0H122a.26.26,0,0,1,.16.13l.72,1.42a.2.2,0,0,1,0,.11.34.34,0,0,1,0,.09.21.21,0,0,1-.13.16l-.7.36a2.66,2.66,0,0,0-1.44,2.33,2.45,2.45,0,0,0,.75,1.79,2.4,2.4,0,0,0,1.78.73h6.95a.6.6,0,0,0,.74-.75V22.22a.24.24,0,0,1,.27-.27Zm-5.55,11.89c.18,0,.26.08.26.26v1.54c0,.19-.08.28-.26.28h-1.47c-.17,0-.25-.09-.25-.28V34.1c0-.18.08-.26.25-.26Z" transform="translate(-5.83 -6.26)"/><path class="cls-1" d="M141.77,32H139.3v.43a3.43,3.43,0,0,1-3.72,3.72h-1.33c-.18,0-.26-.09-.26-.27v-1.6a.23.23,0,0,1,.26-.26h1.33a1.33,1.33,0,0,0,1.59-1.59V22.08c0-.17.09-.26.28-.26H139a.23.23,0,0,1,.26.26v7.78h2.47Z" transform="translate(-5.83 -6.26)"/><path class="cls-1" d="M153.46,29.86c.19,0,.28.09.28.27v1.58c0,.18-.09.27-.28.27H141.19V29.86H145a4.19,4.19,0,0,1-.36-1.73V26a4.52,4.52,0,0,1,4.52-4.53,4.48,4.48,0,0,1,2.64.83,3.45,3.45,0,0,1,1.46,2.08l.18.78a.25.25,0,0,1,0,.08.23.23,0,0,1-.21.24l-1.55.35-.11,0c-.11,0-.18-.07-.21-.22l-.18-.77a1.41,1.41,0,0,0-.67-.87,2.42,2.42,0,0,0-1.36-.41,2.33,2.33,0,0,0-1.7.71,2.36,2.36,0,0,0-.7,1.71v2.18a2.1,2.1,0,0,0,.3,1.11,1.19,1.19,0,0,0,1,.62Z" transform="translate(-5.83 -6.26)"/><path class="cls-2" d="M188,36.22l-1,2.56a2.52,2.52,0,0,1-2.74,1.59l-2.71-.44a1.15,1.15,0,0,0-.52,0,1.24,1.24,0,0,0-.47.24l-2.12,1.73a2.52,2.52,0,0,1-3.17,0l-2.12-1.73a1.11,1.11,0,0,0-.47-.24,1.18,1.18,0,0,0-.53,0l-2.7.43a2.44,2.44,0,0,1-1.65-.3,2.55,2.55,0,0,1-1.1-1.28l-1-2.56a1.2,1.2,0,0,0-.72-.72l-2.56-1a2.49,2.49,0,0,1-1.28-1.09,2.53,2.53,0,0,1-.31-1.66l.44-2.7a1.15,1.15,0,0,0,0-.52,1.4,1.4,0,0,0-.24-.47L159.33,26a2.52,2.52,0,0,1,0-3.17l1.73-2.13a1.26,1.26,0,0,0,.24-.46,1.19,1.19,0,0,0,0-.53l-.44-2.7a2.52,2.52,0,0,1,1.59-2.75l2.56-1a1.25,1.25,0,0,0,.44-.29,1.18,1.18,0,0,0,.28-.44l1-2.55a2.51,2.51,0,0,1,1.09-1.29,2.56,2.56,0,0,1,1.65-.3l2.71.43a1.3,1.3,0,0,0,.52,0,1.4,1.4,0,0,0,.47-.24l2.12-1.73a2.52,2.52,0,0,1,3.17,0l2.12,1.73a1.4,1.4,0,0,0,.47.24,1.35,1.35,0,0,0,.53,0l2.7-.43A2.51,2.51,0,0,1,187,10l1,2.55a1.31,1.31,0,0,0,.73.73l2.55,1A2.51,2.51,0,0,1,192.88,17l-.43,2.7a1.35,1.35,0,0,0,0,.53,1.26,1.26,0,0,0,.24.46l1.73,2.13a2.5,2.5,0,0,1,.56,1.58,2.55,2.55,0,0,1-.56,1.59l-1.73,2.12a1.4,1.4,0,0,0-.24.47,1.31,1.31,0,0,0,0,.52l.44,2.71a2.52,2.52,0,0,1-1.59,2.74l-2.55,1a1.18,1.18,0,0,0-.44.28A1.25,1.25,0,0,0,188,36.22Z" transform="translate(-5.83 -6.26)"/><path class="cls-3" d="M187.58,35.82l-.94,2.46a2.41,2.41,0,0,1-1,1.23,2.44,2.44,0,0,1-1.59.29l-2.59-.42a1.2,1.2,0,0,0-.95.26l-2,1.65a2.41,2.41,0,0,1-3,0l-2-1.66a1.18,1.18,0,0,0-.45-.22,1.05,1.05,0,0,0-.5,0l-2.59.42a2.45,2.45,0,0,1-1.59-.3,2.41,2.41,0,0,1-1.05-1.22l-.93-2.46a1.17,1.17,0,0,0-.27-.42,1.21,1.21,0,0,0-.43-.27l-2.45-.94a2.41,2.41,0,0,1-1.52-2.63L162,29a1.22,1.22,0,0,0,0-.5,1.13,1.13,0,0,0-.23-.45l-1.65-2a2.41,2.41,0,0,1,0-3l1.65-2a1.07,1.07,0,0,0,.23-.45,1.2,1.2,0,0,0,0-.5l-.42-2.59a2.41,2.41,0,0,1,1.52-2.64l2.45-.93a1.23,1.23,0,0,0,.43-.28,1.17,1.17,0,0,0,.27-.42l.94-2.45a2.39,2.39,0,0,1,2.63-1.52l2.59.42a1.39,1.39,0,0,0,.5,0,1.07,1.07,0,0,0,.45-.23l2-1.66a2.41,2.41,0,0,1,3,0l2,1.66a1.07,1.07,0,0,0,.45.23,1.39,1.39,0,0,0,.5,0L184,9.12a2.39,2.39,0,0,1,2.63,1.52l.94,2.45a1.17,1.17,0,0,0,.27.42,1.23,1.23,0,0,0,.43.28l2.45.93a2.41,2.41,0,0,1,1.52,2.64L191.83,20a1.39,1.39,0,0,0,0,.5,1.07,1.07,0,0,0,.23.45l1.65,2a2.41,2.41,0,0,1,0,3l-1.65,2a1.2,1.2,0,0,0-.23.45,1.26,1.26,0,0,0,0,.51l.42,2.59a2.45,2.45,0,0,1-.29,1.59,2.37,2.37,0,0,1-1.23,1l-2.46.94a1.26,1.26,0,0,0-.42.27A1.17,1.17,0,0,0,187.58,35.82Z" transform="translate(-5.83 -6.26)"/><rect class="cls-4" x="152.94" y="1.2" width="36.23" height="36.23"/><path class="cls-1" d="M176.24,29.76v5.9l.69.69.68-.69h0v-5.9h2.24V28.52h-1.59v-1h.39v-6h1.24V19.36h2.79V17.21h-2V14.78h-7.45v2.43h-2v2.15H174v2.15h1.24v6h.4v1H174v1.24Z" transform="translate(-5.83 -6.26)"/></svg>