<?xml version="1.0" encoding="utf-8"?>
<!-- Generator: Adobe Illustrator 20.0.0, SVG Export Plug-In . SVG Version: 6.00 Build 0)  -->
<svg version="1.0" id="Layer_1" xmlns="http://www.w3.org/2000/svg" xmlns:xlink="http://www.w3.org/1999/xlink" x="0px" y="0px"
	 viewBox="0 0 105 105" style="enable-background:new 0 0 105 105;" xml:space="preserve">
<style type="text/css">
	.st0{opacity:0.93;}
	.st1{fill:#FFFFFF;}
	.st2{fill:url(#SVGID_1_);}
</style>
<title>icon</title>
<desc>Created with Sketch.</desc>
<g>
	<g id="Layer_1_1_">
		<g class="st0">
			
				<image style="overflow:visible;opacity:0.25;enable-background:new    ;" width="295" height="295" xlink:href="938F1E24.png"  transform="matrix(0.2478 0 0 0.2478 15.9488 15.9488)">
			</image>
			<path class="st1" d="M40.7,22.8h21.8c9.9,0,17.8,8,17.8,17.8v21.8c0,9.9-8,17.8-17.8,17.8H40.7c-9.9,0-17.8-8-17.8-17.8V40.6
				C22.8,30.7,30.8,22.8,40.7,22.8z"/>
		</g>
		
			<linearGradient id="SVGID_1_" gradientUnits="userSpaceOnUse" x1="46.2189" y1="46.7884" x2="72.2051" y2="77.0389" gradientTransform="matrix(1 0 0 -1 -9.56 114.86)">
			<stop  offset="0" style="stop-color:#8BC34A"/>
			<stop  offset="1" style="stop-color:#2C7B2F"/>
		</linearGradient>
		<path class="st2" d="M68.1,49.7c2.1-4.8,1.3-10.1-3.3-13.9l-10.4-8.7c-0.7-0.5-1.6-0.5-2.3,0L39.4,37.7C31.9,44,32,54.2,39.7,60.5
			l1.9,1.6c-2.1,3.8-1.3,8.5,2.4,11.6l2.7,2.3c0.7,0.5,1.6,0.5,2.3,0l14.8-12.3C68.4,59.8,70.4,54.6,68.1,49.7z M61.5,61.6L47.9,73
			l-1.6-1.3c-3.5-2.9-3.5-7.7,0-10.6l13-10.8c3.2-2.7,3.3-7.1,0-9.8c-1.9-1.5-4.9-4-4.9-4c-0.7-0.5-1.6-0.5-2.3,0l-8.2,6.8
			c-3.8,3.1-3.8,8.2,0,11.3l2.8,2.3c-3,2.5-2.8,2.4-3.3,2.8L42,58.5c-3.1-2.5-4.8-5.9-4.8-9.6c0-3.5,1.6-6.9,4.6-9.4L53.2,30
			l9.3,7.7c5.1,4.2,4.6,10.7-0.5,15L48.5,63.8c-0.5,0.4-0.6,1.2-0.2,1.7c0.1,0.1,0.1,0.2,0.2,0.2c0.7,0.5,1.6,0.5,2.3,0l13.5-11.2
			c0.5-0.4,1-0.9,1.4-1.4C66.2,56.4,64.4,59.3,61.5,61.6L61.5,61.6z M54.7,50.2l-2.1-1.7l1.7-1.4c0.5-0.4,0.6-1.2,0.2-1.7
			c-0.1-0.1-0.1-0.2-0.2-0.2c-0.7-0.5-1.6-0.5-2.3,0L50,46.7c-1,0.7-1.2,2.1-0.4,3.1c0.1,0.2,0.3,0.3,0.4,0.4l2.3,1.9L49,55
			l-2.8-2.3c-2.5-2.1-2.5-5.4,0-7.5l7-5.8l3.7,3.1c2,1.6,1.9,4.2,0,5.9L54.7,50.2z"/>
	</g>
</g>
</svg>
