<svg xmlns="http://www.w3.org/2000/svg" viewBox="0 0 413.98 596"><defs><style>.cls-1{fill:#689f38;}</style></defs><title>logo-greenv1</title><g id="Layer_2" data-name="Layer 2"><g id="Layer_1-2" data-name="Layer 1"><path class="cls-1" d="M401,276.16c24.69-57.83,15.26-120.8-38.9-167.12L240.3,4.82c-7.52-6.44-19.73-6.43-27.24,0L64.7,131.88C-22.61,208.16-21.6,330.82,68,405.82l21.87,18.73c-25,45.64-15.44,101.77,28.57,139.4l31.82,27.24c7.52,6.43,19.71,6.43,27.24,0L350.91,442.86C403.89,397.55,426.79,335.88,401,276.16ZM323.67,419.57,163.88,556.23l-18.21-15.58c-41.14-35.18-41.15-92.43,0-127.62L297.16,283.45c37.93-32.44,38.13-84.91.1-117.2-21.65-18.39-57-48.5-57-48.5-7.5-6.39-19.63-6.4-27.15,0L117.34,199c-44.26,37.54-44.43,98.6-.34,136.31l32.53,27.83c-34.64,29.63-33.25,28.28-38.21,33.19l-16.24-13.9c-36.45-30.51-56.52-71.34-56.52-115,0-42.33,19.05-82.29,53.52-112.41L226.69,39.77l108.22,92.56c59.39,50.79,54.14,128.94-5.25,179.73l-157.74,134c-7.52,6.43-7.52,16.86,0,23.29s19.72,6.43,27.23,0l157.75-134a174.33,174.33,0,0,0,16.61-16.29C378.24,357.5,356.8,391.23,323.67,419.57ZM243.43,282.81l-24.61-21.05L239,244.51c7.52-6.43,7.52-16.86,0-23.29s-19.71-6.43-27.23,0L189,240.68c-13.63,11.65-13.65,30.51,0,42.16l27.19,23.27-39.42,33.72L144.24,312c-29-24.79-28.89-64.93.23-89.63l82.18-69.73c12.28,10.45,30.39,25.87,43.48,37,22.86,19.41,22.65,51-.2,70.53Z"/></g></g></svg>