<?xml version="1.0" encoding="utf-8"?>
<!-- Generator: Adobe Illustrator 20.0.0, SVG Export Plug-In . SVG Version: 6.00 Build 0)  -->
<svg version="1.1" id="Layer_1" xmlns="http://www.w3.org/2000/svg" xmlns:xlink="http://www.w3.org/1999/xlink" x="0px" y="0px"
	 viewBox="0 0 197 50" style="enable-background:new 0 0 197 50;" xml:space="preserve">
<style type="text/css">
	.st0{fill:url(#SVGID_1_);}
	.st1{fill:#FFFFFF;}
</style>
<title>logo/green white</title>
<desc>Created with Sketch.</desc>
<linearGradient id="SVGID_1_" gradientUnits="userSpaceOnUse" x1="17.3651" y1="1.818989e-12" x2="17.3651" y2="50">
	<stop  offset="0" style="stop-color:#689F38"/>
	<stop  offset="1" style="stop-color:#33691E"/>
</linearGradient>
<path class="st0" d="M33.6,23.2c2.1-4.9,1.3-10.1-3.3-14L20.2,0.4c-0.6-0.5-1.7-0.5-2.3,0L5.4,11.1c-7.3,6.4-7.2,16.7,0.3,23
	l1.8,1.6c-2.1,3.8-1.3,8.5,2.4,11.7c0,0,2.6,2.3,2.7,2.3c0.6,0.5,1.7,0.5,2.3,0l14.5-12.4C33.9,33.4,35.8,28.2,33.6,23.2z
	 M27.2,35.2L13.7,46.7l-1.5-1.3c-3.5-3-3.5-7.8,0-10.7c1.9-1.6,10.9-9.3,12.7-10.9c3.2-2.7,3.2-7.1,0-9.8c-1.8-1.5-4.8-4.1-4.8-4.1
	c-0.6-0.5-1.6-0.5-2.3,0l-8,6.8c-3.7,3.1-3.7,8.3,0,11.4l2.7,2.3c-2.9,2.5-2.8,2.4-3.2,2.8L8,32.1c-3.1-2.6-4.7-6-4.7-9.6
	c0-3.6,1.6-6.9,4.5-9.4L19,3.3l9.1,7.8c5,4.3,4.5,10.8-0.4,15.1L14.4,37.4c-0.6,0.5-0.6,1.4,0,2c0.6,0.5,1.7,0.5,2.3,0l13.2-11.2
	c0.5-0.4,1-0.9,1.4-1.4C31.7,30,29.9,32.8,27.2,35.2z M20.4,23.7L18.4,22l1.7-1.4c0.6-0.5,0.6-1.4,0-2c-0.6-0.5-1.7-0.5-2.3,0
	l-1.9,1.6c-1.1,1-1.1,2.6,0,3.5l2.3,2l-3.3,2.8l-2.7-2.3c-2.4-2.1-2.4-5.4,0-7.5l6.9-5.9c1,0.9,2.5,2.2,3.6,3.1
	c1.9,1.6,1.9,4.3,0,5.9L20.4,23.7z"/>
<path class="st1" d="M71.6,26.9c0.3,0,0.4,0.1,0.4,0.3v3.7c0,0.3-0.1,0.4-0.4,0.4c-2.2,0-4.3-0.8-6.1-2.5c-1.3,1.6-3.5,2.4-6.4,2.5
	H59H48.9c-6.4,0-9.6-2.9-9.6-8.8c0-2.1,0.4-4.9,1.1-8.3l3.6,0.5c-0.5,2.9-0.8,5.1-0.8,6.6c0,1.9,0.5,3.3,1.6,4.2
	c1.1,0.9,2.8,1.4,5,1.4h8.6c2.9,0,4.3-1.5,4.3-4.5l0-5.7l4.2-0.6v7.6c0,0.7-0.1,1.3-0.2,1.8C68.4,26.4,69.9,26.9,71.6,26.9z
	 M50.8,37.2l3.4-3.4l3.5,3.4l-3.4,3.4L50.8,37.2z"/>
<path class="st1" d="M84,37.2l-3.4,3.4l-3.2-3.1l-3.1,3.1l-3.5-3.4l3.4-3.4l3.2,3.1l3.2-3.1L84,37.2z M71.6,31.3
	c-0.3,0-0.4-0.1-0.4-0.4l0-3.7c0-0.2,0.1-0.3,0.4-0.3h3.1c2.9,0,4.3-1.5,4.3-4.5v-9.8l4.2-0.6v11.7c0,2.5-0.7,4.4-2.2,5.7
	c-1.4,1.3-3.6,2-6.4,2H71.6z"/>
<path class="st1" d="M96.3,12.3c2.5,0,4.5,0.8,6.1,2.5c1.6,1.7,2.3,3.8,2.3,6.6v9.1c0,6.2-5,9.2-15,9.2l-0.5-3.5
	c3.9,0,6.7-0.5,8.5-1.4c1.8-0.9,2.7-2.4,2.7-4.4c-1.6,0.7-3,1-4.4,1c-2.7,0-4.9-0.8-6.5-2.5c-1.7-1.7-2.5-4-2.5-6.9
	c0-2.8,0.9-5.1,2.6-6.9C91.4,13.2,93.6,12.3,96.3,12.3z M90.9,21.8c0,1.7,0.5,3.1,1.5,4c1,0.9,2.4,1.4,4.1,1.3
	c1.3,0,2.7-0.2,3.9-0.6v-4.8c0-1.5-0.4-2.7-1.3-3.7c-0.9-0.9-2-1.4-3.3-1.4c-1.4,0-2.6,0.5-3.5,1.4C91.4,19,90.9,20.3,90.9,21.8z"/>
<path class="st1" d="M149.5,26.9c0.3,0,0.4,0.1,0.4,0.3v3.7c0,0.3-0.1,0.4-0.4,0.4c-2.2,0-4.3-0.8-6.1-2.5c-1.3,1.6-3.5,2.4-6.4,2.5
	h-0.1h-10.1c-6.4,0-9.6-2.9-9.6-8.8c0-2.1,0.4-4.9,1.1-8.3l3.6,0.5c-0.5,2.9-0.8,5.1-0.8,6.6c0,1.9,0.5,3.3,1.6,4.2
	c1.1,0.9,2.8,1.4,5,1.4h8.6c2.9,0,4.3-1.5,4.3-4.5l0-5.7l4.2-0.6v7.6c0,0.7-0.1,1.3-0.2,1.8C146.3,26.4,147.9,26.9,149.5,26.9z
	 M132.8,10.7l-3.1,3.1l-3.5-3.4l3.4-3.4l3.2,3.1L136,7l3.5,3.4l-3.4,3.4L132.8,10.7z"/>
<path class="st1" d="M162.6,26.9c0.3,0,0.4,0.1,0.4,0.3v3.7c0,0.3-0.1,0.4-0.4,0.4c-2.2,0-4.3-0.8-6.1-2.5c-1.5,1.7-3.8,2.5-6.9,2.5
	c-0.3,0-0.4-0.1-0.4-0.4l0-3.7c0-0.2,0.1-0.3,0.4-0.3c2.9,0,4.3-1.5,4.3-4.5l0-5.7l4.2-0.6v7.6c0,0.7-0.1,1.3-0.2,1.8
	C159.4,26.4,160.9,26.9,162.6,26.9z M159.4,10.1l-3.4,3.4l-3.5-3.4l3.4-3.4L159.4,10.1z"/>
<path class="st1" d="M177.3,26.9c0.3,0,0.4,0.1,0.4,0.3v3.7c0,0.3-0.1,0.4-0.4,0.4c-2.3,0-4.5-1-6.5-2.9c-1.5,1.9-4.3,2.9-8.3,2.9
	c-0.3,0-0.4-0.1-0.4-0.4l0-3.7c0-0.2,0.1-0.3,0.4-0.3c1.9,0,3.3-0.4,4.2-1.1c0.9-0.7,1.3-1.9,1.3-3.5v-5.7l4.2-0.6v7.6
	c0,0.5,0,1-0.1,1.6C173.8,26.3,175.5,26.9,177.3,26.9z M169.9,37l3.2-3.1l3.5,3.4l-3.4,3.4l-3.2-3.1l-3.1,3.1l-3.5-3.4l3.4-3.4
	L169.9,37z"/>
<path class="st1" d="M188,12.1c2.6,0,4.7,0.9,6.5,2.6c1.7,1.7,2.6,3.9,2.6,6.5c0,3.2-1,5.6-2.9,7.5c-2,1.8-4.6,2.7-8,2.7h-8.7
	c-0.3,0-0.4-0.1-0.4-0.4v-3.7c0-0.2,0.1-0.3,0.4-0.3h2.8c-1-2.1-1.4-3.9-1.4-5.4c0-2.8,0.9-5.1,2.6-6.8C183,13,185.2,12.1,188,12.1z
	 M186.2,26.9c2,0,3.6-0.5,4.8-1.5c1.2-1,1.7-2.4,1.7-4.1c0-1.4-0.5-2.6-1.4-3.6c-0.9-0.9-2.1-1.4-3.6-1.4c-1.4,0-2.5,0.5-3.5,1.5
	c-1,1-1.5,2.2-1.5,3.6c0,1.8,0.5,3.6,1.6,5.5H186.2z"/>
</svg>
