<?xml version="1.0" encoding="utf-8"?>
<!-- Generator: Adobe Illustrator 20.0.0, SVG Export Plug-In . SVG Version: 6.00 Build 0)  -->
<svg version="1.1" id="Layer_1" xmlns="http://www.w3.org/2000/svg" xmlns:xlink="http://www.w3.org/1999/xlink" x="0px" y="0px"
	 viewBox="0 0 197 50" style="enable-background:new 0 0 197 50;" xml:space="preserve">
<style type="text/css">
	.st0{fill:url(#SVGID_1_);}
	.st1{fill:#FFFFFF;}
</style>
<title>logo/green white</title>
<desc>Created with Sketch.</desc>
<linearGradient id="SVGID_1_" gradientUnits="userSpaceOnUse" x1="177.8956" y1="0.3333" x2="177.8956" y2="49.6667">
	<stop  offset="0" style="stop-color:#689F38"/>
	<stop  offset="1" style="stop-color:#33691E"/>
</linearGradient>
<path class="st0" d="M194,23.2c2-4.8,1.3-10-3.2-13.8l-10.1-8.6c-0.6-0.5-1.6-0.5-2.3,0l-12.3,10.5c-7.2,6.3-7.1,16.5,0.3,22.7
	l1.8,1.6c-2.1,3.8-1.3,8.4,2.4,11.5c0,0,2.6,2.2,2.6,2.3c0.6,0.5,1.6,0.5,2.3,0L189.8,37C194.2,33.2,196.1,28.1,194,23.2z
	 M187.6,35.1l-13.2,11.3l-1.5-1.3c-3.4-2.9-3.4-7.7,0-10.6c1.9-1.6,10.7-9.2,12.5-10.7c3.1-2.7,3.2-7,0-9.7c-1.8-1.5-4.7-4-4.7-4
	c-0.6-0.5-1.6-0.5-2.2,0l-7.9,6.7c-3.7,3.1-3.7,8.2,0,11.3l2.7,2.3c-2.9,2.5-2.8,2.3-3.2,2.7l-1.3-1.2c-3-2.5-4.7-5.9-4.7-9.5
	c0-3.5,1.6-6.8,4.4-9.3l11.1-9.5l9,7.7c4.9,4.2,4.5,10.7-0.4,14.9L175,37.3c-0.6,0.5-0.6,1.4,0,1.9c0.6,0.5,1.6,0.5,2.3,0l13.1-11.1
	c0.5-0.4,1-0.9,1.4-1.3C192.1,29.9,190.3,32.7,187.6,35.1z M180.9,23.7l-2-1.7l1.7-1.4c0.6-0.5,0.6-1.4,0-1.9
	c-0.6-0.5-1.6-0.5-2.3,0l-1.9,1.6c-1.1,1-1.1,2.5,0,3.5l2.3,1.9l-3.3,2.8l-2.7-2.3c-2.4-2.1-2.4-5.4,0-7.4l6.8-5.8
	c1,0.9,2.5,2.1,3.6,3.1c1.9,1.6,1.9,4.2,0,5.8L180.9,23.7z"/>
<g>
	<path class="st1" d="M30.4,29.5c0.2,0,0.3,0.1,0.3,0.3v1.6c0,0.2-0.1,0.3-0.3,0.3c-1.9,0-3.8-0.8-5.6-2.3c-1.1,1.4-2.9,2.2-5.4,2.3
		h-0.1h-9.1c-2.7,0-4.8-0.6-6.3-1.9c-1.5-1.3-2.2-3.1-2.2-5.6c0-2,0.4-4.6,1.1-7.8l1.9,0.3c-0.6,3-0.9,5.3-0.9,7
		c0,3.9,2.3,5.8,6.9,5.8H19c1.6,0,2.8-0.4,3.6-1.2c0.8-0.8,1.3-1.9,1.3-3.4l0-6.1l2.1-0.4v6.9c0,0.9-0.1,1.7-0.4,2.5
		C27.2,28.9,28.8,29.5,30.4,29.5z M12.9,36.9l2-2l2,2l-2,2L12.9,36.9z"/>
	<path class="st1" d="M30.4,31.7c-0.2,0-0.3-0.1-0.3-0.3v-1.6c0-0.2,0.1-0.3,0.3-0.3h2.5c3.3,0,4.9-1.5,4.9-4.6v-9.9l2.1-0.4v10.7
		c0,2-0.6,3.6-1.8,4.8c-1.2,1.1-2.9,1.7-5.2,1.7H30.4z M32.5,39l-2-2l2-2l2,2L32.5,39z M37.9,39l-2.1-2l2-2l2,2L37.9,39z"/>
	<path class="st1" d="M52,15.3c2.1,0,3.7,0.7,5,2.1c1.3,1.4,1.9,3.2,1.9,5.4v8.1c0,5.6-4.2,8.3-12.6,8.3l-0.3-2
		c3.6,0,6.3-0.5,8.1-1.5s2.7-2.7,2.6-4.9v-0.2c-1.5,0.7-3.1,1.1-4.6,1.1c-2.4,0-4.4-0.7-5.9-2.2c-1.5-1.5-2.2-3.5-2.2-6
		c0-2.4,0.7-4.4,2.2-6C47.8,16,49.7,15.3,52,15.3z M52.6,29.5c1.5,0,2.9-0.3,4.3-0.8V23c0-1.6-0.5-3-1.4-4c-0.9-1-2.2-1.5-3.7-1.5
		c-1.6,0-2.9,0.5-4,1.6c-1.1,1.1-1.6,2.5-1.6,4.3c0,2,0.6,3.5,1.7,4.6C49,29.1,50.6,29.6,52.6,29.5z"/>
	<path class="st1" d="M100.5,29.5c0.2,0,0.3,0.1,0.3,0.3v1.6c0,0.2-0.1,0.3-0.3,0.3c-1.9,0-3.8-0.8-5.6-2.3
		c-1.1,1.4-2.9,2.2-5.4,2.3h-0.1h-9.1c-2.7,0-4.8-0.6-6.3-1.9s-2.2-3.1-2.2-5.6c0-2,0.4-4.6,1.1-7.8l1.9,0.3c-0.6,3-0.9,5.3-0.9,7
		c0,3.9,2.3,5.8,6.9,5.8h8.4c1.6,0,2.8-0.4,3.6-1.2s1.3-1.9,1.3-3.4l0-6.1l2.1-0.4v6.9c0,0.9-0.1,1.7-0.4,2.5
		C97.3,28.9,98.9,29.5,100.5,29.5z M84.4,13.5l-2,2l-2-2l2-2L84.4,13.5z M89.7,13.5l-2,2l-2.1-2l2-2L89.7,13.5z"/>
	<path class="st1" d="M111.9,29.5c0.2,0,0.3,0.1,0.3,0.3v1.6c0,0.2-0.1,0.3-0.3,0.3c-1.9,0-3.8-0.8-5.6-2.3
		c-1.2,1.5-3.1,2.3-5.8,2.3c-0.2,0-0.3-0.1-0.3-0.3v-1.6c0-0.2,0.1-0.3,0.3-0.3c3.3,0,4.9-1.5,4.9-4.6v-6.1l2.1-0.4v6.9
		c0,0.9-0.1,1.7-0.4,2.5C108.7,28.9,110.3,29.5,111.9,29.5z M108.3,13.4l-2,2l-2.1-2l2-2L108.3,13.4z"/>
	<path class="st1" d="M124.9,29.5c0.2,0,0.3,0.1,0.3,0.3v1.6c0,0.2-0.1,0.3-0.3,0.3c-2.3,0-4.3-0.8-6.2-2.5
		c-1.2,1.7-3.4,2.5-6.8,2.5c-0.2,0-0.3-0.1-0.3-0.3v-1.6c0-0.2,0.1-0.3,0.3-0.3c2,0,3.5-0.4,4.4-1.1c0.9-0.7,1.3-1.9,1.3-3.5v-6.1
		l2.1-0.4v6.9c0,0.9-0.1,1.6-0.2,2.3C121.1,28.8,122.9,29.5,124.9,29.5z M113.5,36.9l2-2l2,2l-2,2L113.5,36.9z M118.9,36.9l2-2l2,2
		l-2,2L118.9,36.9z"/>
	<path class="st1" d="M134.4,15.2c2.2,0,4,0.7,5.4,2.2c1.5,1.5,2.2,3.3,2.2,5.6c0,2.7-0.8,4.9-2.5,6.4c-1.7,1.5-4.1,2.3-7.1,2.3
		h-7.5c-0.2,0-0.3-0.1-0.3-0.3v-1.6c0-0.2,0.1-0.3,0.3-0.3h3.4c-1.2-2.6-1.8-4.8-1.8-6.5c0-2.2,0.8-4,2.3-5.5
		C130.3,16,132.2,15.2,134.4,15.2z M132.7,29.5c2.2,0,4-0.6,5.2-1.7c1.3-1.1,1.9-2.6,1.9-4.6c0-1.7-0.5-3.1-1.6-4.2
		c-1.1-1.1-2.4-1.6-4.1-1.6c-1.6,0-2.9,0.6-4,1.7c-1.1,1.2-1.6,2.5-1.6,4c0,1.7,0.7,3.8,2,6.3H132.7z"/>
</g>
</svg>
