<svg xmlns="http://www.w3.org/2000/svg" viewBox="0 0 300 249"><defs><style>.cls-1{fill:none;stroke:#e2e9ed;stroke-miterlimit:10;}.cls-2{fill:#689f38;}</style></defs><title>logo-footer</title><g id="Layer_2" data-name="Layer 2"><g id="Layer_1-2" data-name="Layer 1"><rect class="cls-1" x="0.5" y="0.5" width="299" height="248" rx="9.56" ry="9.56"/><path class="cls-2" d="M200.71,118.79c6.45-15.11,4-31.57-10.17-43.67L158.7,47.89a5.65,5.65,0,0,0-7.12,0l-38.77,33.2c-22.81,19.93-22.55,52,.86,71.58l5.72,4.89c-6.52,11.93-4,26.59,7.47,36.42l8.32,7.12a5.65,5.65,0,0,0,7.12,0l45.32-38.75C201.45,150.51,207.43,134.4,200.71,118.79Zm-20.22,37.47L138.73,192,134,187.91c-10.75-9.19-10.75-24.15,0-33.35l39.59-33.86c9.91-8.48,10-22.19,0-30.63L158.69,77.4a5.65,5.65,0,0,0-7.1,0l-25,21.23c-11.56,9.81-11.61,25.77-.09,35.62l8.5,7.27c-9.05,7.74-8.69,7.39-10,8.67l-4.24-3.63c-9.52-8-14.77-18.64-14.77-30,0-11.06,5-21.5,14-29.37L155.15,57l28.28,24.19c15.52,13.27,14.15,33.69-1.37,47l-41.22,35a3.88,3.88,0,0,0,0,6.09,5.65,5.65,0,0,0,7.12,0l41.22-35a45.55,45.55,0,0,0,4.34-4.26C194.75,140,189.14,148.86,180.49,156.27Zm-21-35.74-6.43-5.5,5.27-4.51a3.88,3.88,0,0,0,0-6.09,5.65,5.65,0,0,0-7.12,0l-5.94,5.09a7,7,0,0,0,0,11l7.11,6.08-10.3,8.81-8.5-7.27c-7.57-6.48-7.55-17,.06-23.42l21.47-18.22,11.36,9.67c6,5.07,5.92,13.32-.05,18.43Z"/></g></g></svg>