<?xml version="1.0" encoding="utf-8"?>
<!-- Generator: Adobe Illustrator 20.0.0, SVG Export Plug-In . SVG Version: 6.00 Build 0)  -->
<svg version="1.1" id="Layer_1" xmlns="http://www.w3.org/2000/svg" xmlns:xlink="http://www.w3.org/1999/xlink" x="0px" y="0px"
	 viewBox="0 0 105 105" style="enable-background:new 0 0 105 105;" xml:space="preserve">
<style type="text/css">
	.st0{fill:url(#SVGID_1_);}
	.st1{fill:url(#SVGID_2_);}
	.st2{opacity:0.93;}
	.st3{fill:#FFFFFF;}
	.st4{fill:url(#SVGID_3_);}
</style>
<title>icon</title>
<desc>Created with Sketch.</desc>
<linearGradient id="SVGID_1_" gradientUnits="userSpaceOnUse" x1="-99.755" y1="-20.72" x2="-41.755" y2="-20.72">
	<stop  offset="0" style="stop-color:#4CAF50"/>
	<stop  offset="1" style="stop-color:#2C7B2F"/>
</linearGradient>
<path class="st0" d="M-42.8-40.9l-7.8-7.8c-0.7-0.7-1.6-1.1-2.6-1.1s-1.9,0.3-2.6,1.1l-43,43c-1.4,1.4-1.4,3.7,0,5.1l7.8,7.8
	c0.7,0.7,1.6,1.1,2.6,1.1c0.9,0,1.8-0.4,2.6-1.1l43-43C-41.4-37.2-41.4-39.5-42.8-40.9z M-88.4,4.6l-7.8-7.8l29.3-29.3l7.8,7.8
	L-88.4,4.6z M-56.5-27.2l-7.8-7.8l11.1-11.1l7.8,7.8L-56.5-27.2z"/>
<linearGradient id="SVGID_2_" gradientUnits="userSpaceOnUse" x1="-362.0064" y1="129.0878" x2="-257.4964" y2="250.7478" gradientTransform="matrix(1 0 0 -1 -9.56 114.86)">
	<stop  offset="0" style="stop-color:#8BC34A"/>
	<stop  offset="1" style="stop-color:#2C7B2F"/>
</linearGradient>
<path class="st1" d="M-244.9-88.2c8.5-19.4,5.3-40.4-13.4-56l-41.9-34.8c-2.8-2.2-6.6-2.2-9.4,0l-51,42.5
	c-30,25.5-29.7,66.6,1.1,91.7l7.5,6.3c-8.6,15.3-5.3,34.1,9.8,46.7l11,9.1c2.8,2.2,6.6,2.2,9.4,0l59.7-49.6
	C-243.9-47.6-236.1-68.2-244.9-88.2z M-271.5-40.2l-55,45.8l-6.3-5.2c-14.2-11.8-14.2-30.9,0-42.7l52.1-43.4
	c13-10.9,13.1-28.4,0-39.2c-7.5-6.2-19.6-16.2-19.6-16.2c-2.7-2.1-6.6-2.1-9.3,0l-32.9,27.3c-15.2,12.6-15.3,33-0.1,45.6l11.2,9.3
	c-11.9,9.9-11.4,9.5-13.1,11.1l-5.6-4.6c-12.5-10.2-19.4-23.9-19.4-38.5c0-14.2,6.6-27.6,18.4-37.6l46.3-38.6l37.2,31
	c20.4,17,18.6,43.2-1.8,60.2l-54.3,44.9c-2.2,1.6-2.6,4.7-1,6.8c0.3,0.4,0.6,0.7,1,1c2.8,2.2,6.6,2.2,9.4,0l54.3-44.9
	c2-1.7,3.9-3.5,5.7-5.4C-252.8-61-260.1-49.7-271.5-40.2L-271.5-40.2z M-299.1-86l-8.5-7l6.9-5.8c2.2-1.6,2.6-4.7,1-6.8
	c-0.3-0.4-0.6-0.7-1-1c-2.8-2.2-6.6-2.2-9.4,0l-7.8,6.5c-3.9,2.9-4.7,8.5-1.7,12.4c0.5,0.7,1.1,1.2,1.7,1.7l9.4,7.8l-13.6,11.3
	l-11.2-9.3c-10-8.3-9.9-21.7,0.1-30l28.3-23.3l15,12.4c7.9,6.5,7.8,17.1-0.1,23.6L-299.1-86z"/>
<g>
	<g id="Layer_1_1_">
		<g class="st2">
			
				<image style="overflow:visible;opacity:0.25;enable-background:new    ;" width="295" height="295" xlink:href="938F1E27.png"  transform="matrix(0.2478 0 0 0.2478 15.9488 15.9488)">
			</image>
			<path class="st3" d="M40.7,22.8h21.8c9.9,0,17.8,8,17.8,17.8v21.8c0,9.9-8,17.8-17.8,17.8H40.7c-9.9,0-17.8-8-17.8-17.8V40.6
				C22.8,30.7,30.8,22.8,40.7,22.8z"/>
		</g>
		
			<linearGradient id="SVGID_3_" gradientUnits="userSpaceOnUse" x1="46.2189" y1="46.7884" x2="72.2051" y2="77.0389" gradientTransform="matrix(1 0 0 -1 -9.56 114.86)">
			<stop  offset="0" style="stop-color:#8BC34A"/>
			<stop  offset="1" style="stop-color:#2C7B2F"/>
		</linearGradient>
		<path class="st4" d="M68.1,49.7c2.1-4.8,1.3-10.1-3.3-13.9l-10.4-8.7c-0.7-0.5-1.6-0.5-2.3,0L39.4,37.7C31.9,44,32,54.2,39.7,60.5
			l1.9,1.6c-2.1,3.8-1.3,8.5,2.4,11.6l2.7,2.3c0.7,0.5,1.6,0.5,2.3,0l14.8-12.3C68.4,59.8,70.4,54.6,68.1,49.7z M61.5,61.6L47.9,73
			l-1.6-1.3c-3.5-2.9-3.5-7.7,0-10.6l13-10.8c3.2-2.7,3.3-7.1,0-9.8c-1.9-1.5-4.9-4-4.9-4c-0.7-0.5-1.6-0.5-2.3,0l-8.2,6.8
			c-3.8,3.1-3.8,8.2,0,11.3l2.8,2.3c-3,2.5-2.8,2.4-3.3,2.8L42,58.5c-3.1-2.5-4.8-5.9-4.8-9.6c0-3.5,1.6-6.9,4.6-9.4L53.2,30
			l9.3,7.7c5.1,4.2,4.6,10.7-0.5,15L48.5,63.8c-0.5,0.4-0.6,1.2-0.2,1.7c0.1,0.1,0.1,0.2,0.2,0.2c0.7,0.5,1.6,0.5,2.3,0l13.5-11.2
			c0.5-0.4,1-0.9,1.4-1.4C66.2,56.4,64.4,59.3,61.5,61.6L61.5,61.6z M54.7,50.2l-2.1-1.7l1.7-1.4c0.5-0.4,0.6-1.2,0.2-1.7
			c-0.1-0.1-0.1-0.2-0.2-0.2c-0.7-0.5-1.6-0.5-2.3,0L50,46.7c-1,0.7-1.2,2.1-0.4,3.1c0.1,0.2,0.3,0.3,0.4,0.4l2.3,1.9L49,55
			l-2.8-2.3c-2.5-2.1-2.5-5.4,0-7.5l7-5.8l3.7,3.1c2,1.6,1.9,4.2,0,5.9L54.7,50.2z"/>
	</g>
</g>
</svg>
