<svg xmlns="http://www.w3.org/2000/svg" viewBox="0 0 711.32 590.17"><defs><style>.cls-1{fill:none;stroke:#e2e9ed;stroke-miterlimit:10;}.cls-2{fill:#689f38;}</style></defs><title>logo-footer</title><g id="Layer_2" data-name="Layer 2"><g id="Layer_1-2" data-name="Layer 1"><rect class="cls-1" x="0.5" y="0.5" width="710.32" height="589.17" rx="9.56" ry="9.56"/><path class="cls-2" d="M476.12,281.53c15.33-35.9,9.47-75-24.15-103.75l-75.64-64.69a13.43,13.43,0,0,0-16.91,0L267.33,192c-54.2,47.36-53.57,123.5,2,170.05l13.58,11.63c-15.49,28.33-9.58,63.17,17.74,86.53l19.75,16.91a13.43,13.43,0,0,0,16.91,0L445,385C477.89,356.88,492.1,318.6,476.12,281.53Zm-48,89L328.9,455.39l-11.31-9.67c-25.54-21.84-25.54-57.38,0-79.22l94.05-80.44c23.54-20.14,23.67-52.71.06-72.76-13.44-11.41-35.38-30.11-35.39-30.11a13.43,13.43,0,0,0-16.86,0L300,233.61c-27.47,23.3-27.58,61.21-.21,84.62L320,335.51c-21.5,18.39-20.64,17.56-23.72,20.61l-10.08-8.63c-22.62-18.94-35.08-44.29-35.08-71.37,0-26.28,11.83-51.08,33.22-69.78l83.56-71.55,67.18,57.46c36.87,31.53,33.61,80-3.26,111.57L333.88,387a9.21,9.21,0,0,0,0,14.46,13.43,13.43,0,0,0,16.91,0l97.93-83.19A108.22,108.22,0,0,0,459,308.16C462,332,448.66,353,428.09,370.55Zm-49.81-84.9L363,272.59l12.52-10.71a9.21,9.21,0,0,0,0-14.46,13.42,13.42,0,0,0-16.91,0L344.5,259.5c-8.46,7.23-8.47,18.94,0,26.17l16.88,14.44L336.9,321l-20.2-17.27c-18-15.39-17.93-40.31.14-55.64l51-43.29c7.62,6.49,18.86,16.06,27,23,14.19,12,14.06,31.65-.13,43.79Z"/></g></g></svg>