<?xml version="1.0" encoding="utf-8"?>
<!-- Generator: Adobe Illustrator 20.0.0, SVG Export Plug-In . SVG Version: 6.00 Build 0)  -->
<svg version="1.1" id="Layer_1" xmlns="http://www.w3.org/2000/svg" xmlns:xlink="http://www.w3.org/1999/xlink" x="0px" y="0px"
	 viewBox="0 0 197 50" style="enable-background:new 0 0 197 50;" xml:space="preserve">
<style type="text/css">
	.st0{fill:url(#SVGID_1_);}
	.st1{fill:#FFFFFF;}
</style>
<title>logo/green white</title>
<desc>Created with Sketch.</desc>
<linearGradient id="SVGID_1_" gradientUnits="userSpaceOnUse" x1="17.3651" y1="1.818989e-12" x2="17.3651" y2="50">
	<stop  offset="0" style="stop-color:#689F38"/>
	<stop  offset="1" style="stop-color:#33691E"/>
</linearGradient>
<path class="st0" d="M33.6,23.2c2.1-4.9,1.3-10.1-3.3-14L20.2,0.4c-0.6-0.5-1.7-0.5-2.3,0L5.4,11.1c-7.3,6.4-7.2,16.7,0.3,23
	l1.8,1.6c-2.1,3.8-1.3,8.5,2.4,11.7c0,0,2.6,2.3,2.7,2.3c0.6,0.5,1.7,0.5,2.3,0l14.5-12.4C33.9,33.4,35.8,28.2,33.6,23.2z
	 M27.2,35.2L13.7,46.7l-1.5-1.3c-3.5-3-3.5-7.8,0-10.7c1.9-1.6,10.9-9.3,12.7-10.9c3.2-2.7,3.2-7.1,0-9.8c-1.8-1.5-4.8-4.1-4.8-4.1
	c-0.6-0.5-1.6-0.5-2.3,0l-8,6.8c-3.7,3.1-3.7,8.3,0,11.4l2.7,2.3c-2.9,2.5-2.8,2.4-3.2,2.8L8,32.1c-3.1-2.6-4.7-6-4.7-9.6
	c0-3.6,1.6-6.9,4.5-9.4L19,3.3l9.1,7.8c5,4.3,4.5,10.8-0.4,15.1L14.4,37.4c-0.6,0.5-0.6,1.4,0,2c0.6,0.5,1.7,0.5,2.3,0l13.2-11.2
	c0.5-0.4,1-0.9,1.4-1.4C31.7,30,29.9,32.8,27.2,35.2z M20.4,23.7L18.4,22l1.7-1.4c0.6-0.5,0.6-1.4,0-2c-0.6-0.5-1.7-0.5-2.3,0
	l-1.9,1.6c-1.1,1-1.1,2.6,0,3.5l2.3,2l-3.3,2.8l-2.7-2.3c-2.4-2.1-2.4-5.4,0-7.5l6.9-5.9c1,0.9,2.5,2.2,3.6,3.1
	c1.9,1.6,1.9,4.3,0,5.9L20.4,23.7z"/>
<g>
	<path class="st1" d="M79.9,29.5c0.2,0,0.3,0.1,0.3,0.3v1.6c0,0.2-0.1,0.3-0.3,0.3c-1.9,0-3.8-0.8-5.6-2.3c-1.1,1.4-2.9,2.2-5.4,2.3
		h-0.1h-9.1c-2.7,0-4.8-0.6-6.3-1.9c-1.5-1.3-2.2-3.1-2.2-5.6c0-2,0.4-4.6,1.1-7.8l1.9,0.3c-0.6,3-0.9,5.3-0.9,7
		c0,3.9,2.3,5.8,6.9,5.8h8.4c1.6,0,2.8-0.4,3.6-1.2c0.8-0.8,1.3-1.9,1.3-3.4l0-6.1l2.1-0.4v6.9c0,0.9-0.1,1.7-0.4,2.5
		C76.7,28.9,78.3,29.5,79.9,29.5z M62.4,36.9l2-2l2,2l-2,2L62.4,36.9z"/>
	<path class="st1" d="M79.9,31.7c-0.2,0-0.3-0.1-0.3-0.3v-1.6c0-0.2,0.1-0.3,0.3-0.3h2.5c3.3,0,4.9-1.5,4.9-4.6v-9.9l2.1-0.4v10.7
		c0,2-0.6,3.6-1.8,4.8c-1.2,1.1-2.9,1.7-5.2,1.7H79.9z M82.1,39l-2-2l2-2l2,2L82.1,39z M87.4,39l-2.1-2l2-2l2,2L87.4,39z"/>
	<path class="st1" d="M101.5,15.3c2.1,0,3.7,0.7,5,2.1c1.3,1.4,1.9,3.2,1.9,5.4v8.1c0,5.6-4.2,8.3-12.6,8.3l-0.3-2
		c3.6,0,6.3-0.5,8.1-1.5s2.7-2.7,2.6-4.9v-0.2c-1.5,0.7-3.1,1.1-4.6,1.1c-2.4,0-4.4-0.7-5.9-2.2c-1.5-1.5-2.2-3.5-2.2-6
		c0-2.4,0.7-4.4,2.2-6C97.4,16,99.2,15.3,101.5,15.3z M102.1,29.5c1.5,0,2.9-0.3,4.3-0.8V23c0-1.6-0.5-3-1.4-4
		c-0.9-1-2.2-1.5-3.7-1.5c-1.6,0-2.9,0.5-4,1.6c-1.1,1.1-1.6,2.5-1.6,4.3c0,2,0.6,3.5,1.7,4.6C98.5,29.1,100.1,29.6,102.1,29.5z"/>
	<path class="st1" d="M150,29.5c0.2,0,0.3,0.1,0.3,0.3v1.6c0,0.2-0.1,0.3-0.3,0.3c-1.9,0-3.8-0.8-5.6-2.3c-1.1,1.4-2.9,2.2-5.4,2.3
		h-0.1h-9.1c-2.7,0-4.8-0.6-6.3-1.9s-2.2-3.1-2.2-5.6c0-2,0.4-4.6,1.1-7.8l1.9,0.3c-0.6,3-0.9,5.3-0.9,7c0,3.9,2.3,5.8,6.9,5.8h8.4
		c1.6,0,2.8-0.4,3.6-1.2s1.3-1.9,1.3-3.4l0-6.1l2.1-0.4v6.9c0,0.9-0.1,1.7-0.4,2.5C146.8,28.9,148.4,29.5,150,29.5z M133.9,13.5
		l-2,2l-2-2l2-2L133.9,13.5z M139.3,13.5l-2,2l-2.1-2l2-2L139.3,13.5z"/>
	<path class="st1" d="M161.4,29.5c0.2,0,0.3,0.1,0.3,0.3v1.6c0,0.2-0.1,0.3-0.3,0.3c-1.9,0-3.8-0.8-5.6-2.3
		c-1.2,1.5-3.1,2.3-5.8,2.3c-0.2,0-0.3-0.1-0.3-0.3v-1.6c0-0.2,0.1-0.3,0.3-0.3c3.3,0,4.9-1.5,4.9-4.6v-6.1l2.1-0.4v6.9
		c0,0.9-0.1,1.7-0.4,2.5C158.2,28.9,159.8,29.5,161.4,29.5z M157.9,13.4l-2,2l-2.1-2l2-2L157.9,13.4z"/>
	<path class="st1" d="M174.4,29.5c0.2,0,0.3,0.1,0.3,0.3v1.6c0,0.2-0.1,0.3-0.3,0.3c-2.3,0-4.3-0.8-6.2-2.5
		c-1.2,1.7-3.4,2.5-6.8,2.5c-0.2,0-0.3-0.1-0.3-0.3v-1.6c0-0.2,0.1-0.3,0.3-0.3c2,0,3.5-0.4,4.4-1.1c0.9-0.7,1.3-1.9,1.3-3.5v-6.1
		l2.1-0.4v6.9c0,0.9-0.1,1.6-0.2,2.3C170.7,28.8,172.5,29.5,174.4,29.5z M163.1,36.9l2-2l2,2l-2,2L163.1,36.9z M168.4,36.9l2-2l2,2
		l-2,2L168.4,36.9z"/>
	<path class="st1" d="M183.9,15.2c2.2,0,4,0.7,5.4,2.2c1.5,1.5,2.2,3.3,2.2,5.6c0,2.7-0.8,4.9-2.5,6.4c-1.7,1.5-4.1,2.3-7.1,2.3
		h-7.5c-0.2,0-0.3-0.1-0.3-0.3v-1.6c0-0.2,0.1-0.3,0.3-0.3h3.4c-1.2-2.6-1.8-4.8-1.8-6.5c0-2.2,0.8-4,2.3-5.5
		C179.8,16,181.7,15.2,183.9,15.2z M182.2,29.5c2.2,0,4-0.6,5.2-1.7c1.3-1.1,1.9-2.6,1.9-4.6c0-1.7-0.5-3.1-1.6-4.2
		c-1.1-1.1-2.4-1.6-4.1-1.6c-1.6,0-2.9,0.6-4,1.7c-1.1,1.2-1.6,2.5-1.6,4c0,1.7,0.7,3.8,2,6.3H182.2z"/>
</g>
</svg>
