<?xml version="1.0" encoding="utf-8"?>
<!-- Generator: Adobe Illustrator 20.0.0, SVG Export Plug-In . SVG Version: 6.00 Build 0)  -->
<svg version="1.1" id="Layer_1" xmlns="http://www.w3.org/2000/svg" xmlns:xlink="http://www.w3.org/1999/xlink" x="0px" y="0px"
	 viewBox="0 0 197 50" style="enable-background:new 0 0 197 50;" xml:space="preserve">
<style type="text/css">
	.st0{fill:url(#SVGID_1_);}
	.st1{fill:#FFFFFF;}
</style>
<title>logo/green white</title>
<desc>Created with Sketch.</desc>
<linearGradient id="SVGID_1_" gradientUnits="userSpaceOnUse" x1="179.8664" y1="0.3333" x2="179.8664" y2="49.6667">
	<stop  offset="0" style="stop-color:#689F38"/>
	<stop  offset="1" style="stop-color:#33691E"/>
</linearGradient>
<path class="st0" d="M195.9,23.2c2-4.8,1.3-10-3.2-13.8l-10.1-8.6c-0.6-0.5-1.6-0.5-2.3,0l-12.3,10.5c-7.2,6.3-7.1,16.5,0.3,22.7
	l1.8,1.6c-2.1,3.8-1.3,8.4,2.4,11.5c0,0,2.6,2.2,2.6,2.3c0.6,0.5,1.6,0.5,2.3,0L191.8,37C196.2,33.2,198.1,28.1,195.9,23.2z
	 M189.5,35.1l-13.2,11.3l-1.5-1.3c-3.4-2.9-3.4-7.7,0-10.6c1.9-1.6,10.7-9.2,12.5-10.7c3.1-2.7,3.2-7,0-9.7c-1.8-1.5-4.7-4-4.7-4
	c-0.6-0.5-1.6-0.5-2.2,0l-7.9,6.7c-3.7,3.1-3.7,8.2,0,11.3l2.7,2.3c-2.9,2.5-2.8,2.3-3.2,2.7l-1.3-1.2c-3-2.5-4.7-5.9-4.7-9.5
	c0-3.5,1.6-6.8,4.4-9.3l11.1-9.5l9,7.7c4.9,4.2,4.5,10.7-0.4,14.9L177,37.3c-0.6,0.5-0.6,1.4,0,1.9c0.6,0.5,1.6,0.5,2.3,0l13.1-11.1
	c0.5-0.4,1-0.9,1.4-1.3C194,29.9,192.3,32.7,189.5,35.1z M182.9,23.7l-2-1.7l1.7-1.4c0.6-0.5,0.6-1.4,0-1.9c-0.6-0.5-1.6-0.5-2.3,0
	l-1.9,1.6c-1.1,1-1.1,2.5,0,3.5l2.3,1.9l-3.3,2.8l-2.7-2.3c-2.4-2.1-2.4-5.4,0-7.4l6.8-5.8c1,0.9,2.5,2.1,3.6,3.1
	c1.9,1.6,1.9,4.2,0,5.8L182.9,23.7z"/>
<g>
	<path class="st1" d="M39.7,29.2c0.2,0,0.3,0.1,0.3,0.3v1.6c0,0.2-0.1,0.3-0.3,0.3c-1.9,0-3.8-0.8-5.6-2.3c-1.1,1.4-2.9,2.2-5.4,2.3
		h-0.1h-9.1c-2.7,0-4.8-0.6-6.3-1.9c-1.5-1.3-2.2-3.1-2.2-5.6c0-2,0.4-4.6,1.1-7.8l1.9,0.3c-0.6,3-0.9,5.3-0.9,7
		c0,3.9,2.3,5.8,6.9,5.8h8.4c1.6,0,2.8-0.4,3.6-1.2c0.8-0.8,1.3-1.9,1.3-3.4l0-6.1l2.1-0.4v6.9c0,0.9-0.1,1.7-0.4,2.5
		C36.5,28.6,38.1,29.2,39.7,29.2z M22.2,36.6l2-2l2,2l-2,2L22.2,36.6z"/>
	<path class="st1" d="M39.7,31.4c-0.2,0-0.3-0.1-0.3-0.3v-1.6c0-0.2,0.1-0.3,0.3-0.3h2.5c3.3,0,4.9-1.5,4.9-4.6v-9.9l2.1-0.4v10.7
		c0,2-0.6,3.6-1.8,4.8c-1.2,1.1-2.9,1.7-5.2,1.7H39.7z M41.8,38.7l-2-2l2-2l2,2L41.8,38.7z M47.2,38.7l-2.1-2l2-2l2,2L47.2,38.7z"/>
	<path class="st1" d="M61.3,14.9c2.1,0,3.7,0.7,5,2.1c1.3,1.4,1.9,3.2,1.9,5.4v8.1c0,5.6-4.2,8.3-12.6,8.3l-0.3-2
		c3.6,0,6.3-0.5,8.1-1.5s2.7-2.7,2.6-4.9v-0.2c-1.5,0.7-3.1,1.1-4.6,1.1c-2.4,0-4.4-0.7-5.9-2.2c-1.5-1.5-2.2-3.5-2.2-6
		c0-2.4,0.7-4.4,2.2-6C57.1,15.7,59,14.9,61.3,14.9z M61.9,29.2c1.5,0,2.9-0.3,4.3-0.8v-5.7c0-1.6-0.5-3-1.4-4
		c-0.9-1-2.2-1.5-3.7-1.5c-1.6,0-2.9,0.5-4,1.6c-1.1,1.1-1.6,2.5-1.6,4.3c0,2,0.6,3.5,1.7,4.6C58.3,28.8,59.9,29.3,61.9,29.2z"/>
	<path class="st1" d="M109.8,29.2c0.2,0,0.3,0.1,0.3,0.3v1.6c0,0.2-0.1,0.3-0.3,0.3c-1.9,0-3.8-0.8-5.6-2.3
		c-1.1,1.4-2.9,2.2-5.4,2.3h-0.1h-9.1c-2.7,0-4.8-0.6-6.3-1.9s-2.2-3.1-2.2-5.6c0-2,0.4-4.6,1.1-7.8l1.9,0.3c-0.6,3-0.9,5.3-0.9,7
		c0,3.9,2.3,5.8,6.9,5.8h8.4c1.6,0,2.8-0.4,3.6-1.2s1.3-1.9,1.3-3.4l0-6.1l2.1-0.4v6.9c0,0.9-0.1,1.7-0.4,2.5
		C106.6,28.6,108.2,29.2,109.8,29.2z M93.7,13.2l-2,2l-2-2l2-2L93.7,13.2z M99,13.2l-2,2l-2.1-2l2-2L99,13.2z"/>
	<path class="st1" d="M121.2,29.2c0.2,0,0.3,0.1,0.3,0.3v1.6c0,0.2-0.1,0.3-0.3,0.3c-1.9,0-3.8-0.8-5.6-2.3
		c-1.2,1.5-3.1,2.3-5.8,2.3c-0.2,0-0.3-0.1-0.3-0.3v-1.6c0-0.2,0.1-0.3,0.3-0.3c3.3,0,4.9-1.5,4.9-4.6v-6.1l2.1-0.4v6.9
		c0,0.9-0.1,1.7-0.4,2.5C118,28.6,119.6,29.2,121.2,29.2z M117.6,13.1l-2,2l-2.1-2l2-2L117.6,13.1z"/>
	<path class="st1" d="M134.2,29.2c0.2,0,0.3,0.1,0.3,0.3v1.6c0,0.2-0.1,0.3-0.3,0.3c-2.3,0-4.3-0.8-6.2-2.5
		c-1.2,1.7-3.4,2.5-6.8,2.5c-0.2,0-0.3-0.1-0.3-0.3v-1.6c0-0.2,0.1-0.3,0.3-0.3c2,0,3.5-0.4,4.4-1.1c0.9-0.7,1.3-1.9,1.3-3.5v-6.1
		L129,18v6.9c0,0.9-0.1,1.6-0.2,2.3C130.4,28.5,132.2,29.2,134.2,29.2z M122.8,36.6l2-2l2,2l-2,2L122.8,36.6z M128.2,36.6l2-2l2,2
		l-2,2L128.2,36.6z"/>
	<path class="st1" d="M143.7,14.9c2.2,0,4,0.7,5.4,2.2c1.5,1.5,2.2,3.3,2.2,5.6c0,2.7-0.8,4.9-2.5,6.4c-1.7,1.5-4.1,2.3-7.1,2.3
		h-7.5c-0.2,0-0.3-0.1-0.3-0.3v-1.6c0-0.2,0.1-0.3,0.3-0.3h3.4c-1.2-2.6-1.8-4.8-1.8-6.5c0-2.2,0.8-4,2.3-5.5
		C139.6,15.7,141.4,14.9,143.7,14.9z M142,29.2c2.2,0,4-0.6,5.2-1.7c1.3-1.1,1.9-2.6,1.9-4.6c0-1.7-0.5-3.1-1.6-4.2
		c-1.1-1.1-2.4-1.6-4.1-1.6c-1.6,0-2.9,0.6-4,1.7c-1.1,1.2-1.6,2.5-1.6,4c0,1.7,0.7,3.8,2,6.3H142z"/>
</g>
</svg>
