<?xml version="1.0" encoding="utf-8"?>
<!-- Generator: Adobe Illustrator 20.0.0, SVG Export Plug-In . SVG Version: 6.00 Build 0)  -->
<svg version="1.1" id="Layer_1" xmlns="http://www.w3.org/2000/svg" xmlns:xlink="http://www.w3.org/1999/xlink" x="0px" y="0px"
	 viewBox="0 0 138 154" style="enable-background:new 0 0 138 154;" xml:space="preserve">
<style type="text/css">
	.st0{fill:url(#Ornament-1-Line-Copy-2_1_);}
	.st1{fill:url(#SVGID_1_);}
</style>
<title>hex-logo</title>
<desc>Created with Sketch.</desc>
<g id="Pages">
	<g id="Home---Approach-v3-" transform="translate(-729.000000, -1227.000000)">
		<g id="About" transform="translate(344.000000, 1224.000000)">
			<g id="Group-10">
				<g id="hex-logo" transform="translate(385.000000, 0.000000)">
					
						<linearGradient id="Ornament-1-Line-Copy-2_1_" gradientUnits="userSpaceOnUse" x1="-233.79" y1="474.9318" x2="-233.79" y2="473.9318" gradientTransform="matrix(137.8947 0 0 -153.7558 32307.1563 73026.6563)">
						<stop  offset="0" style="stop-color:#F7FBFA"/>
						<stop  offset="1" style="stop-color:#EDF5F4"/>
					</linearGradient>
					<path id="Ornament-1-Line-Copy-2" class="st0" d="M78.8,5.8l48.9,28.4c6.2,3.6,10,10.2,10,17.3v57c0,7.1-3.8,13.7-10,17.3
						l-48.9,28.4c-6.2,3.6-13.9,3.6-20.1,0L9.8,125.8c-6.2-3.6-10-10.2-10-17.3v-57c0-7.1,3.8-13.7,10-17.3L58.7,5.8
						C64.9,2.2,72.6,2.2,78.8,5.8z"/>
				</g>
			</g>
		</g>
	</g>
</g>
<linearGradient id="SVGID_1_" gradientUnits="userSpaceOnUse" x1="90.6467" y1="45.18" x2="44.3807" y2="109.566">
	<stop  offset="0" style="stop-color:#689F38"/>
	<stop  offset="1" style="stop-color:#33691E"/>
</linearGradient>
<path class="st1" d="M97.8,73.7c3.7-8.7,2.3-18.1-5.8-25.1L73.7,33c-1.1-1-3-1-4.1,0l-22.2,19c-13.1,11.4-12.9,29.8,0.5,41.1
	l3.3,2.8c-3.7,6.8-2.3,15.3,4.3,20.9c0,0,4.7,4,4.8,4.1c1.1,1,3,1,4.1,0l26-22.2C98.3,91.9,101.7,82.7,97.8,73.7z M86.2,95.2
	l-24,20.5l-2.7-2.3c-6.2-5.3-6.2-13.9,0-19.1C63,91.3,79,77.6,82.3,74.8c5.7-4.9,5.7-12.7,0-17.6C79,54.5,73.7,50,73.7,50
	c-1.1-1-2.9-1-4.1,0L55.3,62.2c-6.6,5.6-6.7,14.8-0.1,20.4l4.9,4.2c-5.2,4.4-5,4.2-5.7,5L52,89.7c-5.5-4.6-8.5-10.7-8.5-17.2
	c0-6.3,2.9-12.3,8-16.9l20.2-17.3l16.2,13.9c8.9,7.6,8.1,19.3-0.8,26.9L63.5,99.2c-1.1,1-1.1,2.5,0,3.5c1.1,1,3,1,4.1,0l23.6-20.1
	c0.9-0.8,1.7-1.6,2.5-2.4C94.4,85.9,91.2,91,86.2,95.2z M74.2,74.7l-3.7-3.2l3-2.6c1.1-1,1.1-2.5,0-3.5c-1.1-1-3-1-4.1,0l-3.4,2.9
	c-2,1.7-2,4.6,0,6.3l4.1,3.5l-5.9,5.1l-4.9-4.2c-4.3-3.7-4.3-9.7,0-13.4l12.3-10.5c1.8,1.6,4.6,3.9,6.5,5.5c3.4,2.9,3.4,7.6,0,10.6
	L74.2,74.7z"/>
</svg>
